<?xml version="1.0" encoding="UTF-8" standalone="no"?>
<svg
   xmlns:dc="http://purl.org/dc/elements/1.1/"
   xmlns:cc="http://creativecommons.org/ns#"
   xmlns:rdf="http://www.w3.org/1999/02/22-rdf-syntax-ns#"
   xmlns:svg="http://www.w3.org/2000/svg"
   xmlns="http://www.w3.org/2000/svg"
   xmlns:sodipodi="http://sodipodi.sourceforge.net/DTD/sodipodi-0.dtd"
   xmlns:inkscape="http://www.inkscape.org/namespaces/inkscape"
   version="1.1"
   viewBox="0.0 0.0 960.0 540.0"
   fill="none"
   stroke="none"
   stroke-linecap="square"
   stroke-miterlimit="10"
   id="svg4357"
   sodipodi:docname="naumachia-architecture.svg"
   inkscape:version="0.92.4 5da689c313, 2019-01-14">
  <metadata
     id="metadata4363">
    <rdf:RDF>
      <cc:Work
         rdf:about="">
        <dc:format>image/svg+xml</dc:format>
        <dc:type
           rdf:resource="http://purl.org/dc/dcmitype/StillImage" />
      </cc:Work>
    </rdf:RDF>
  </metadata>
  <defs
     id="defs4361" />
  <sodipodi:namedview
     pagecolor="#ffffff"
     bordercolor="#666666"
     borderopacity="1"
     objecttolerance="10"
     gridtolerance="10"
     guidetolerance="10"
     inkscape:pageopacity="0"
     inkscape:pageshadow="2"
     inkscape:window-width="1916"
     inkscape:window-height="1041"
     id="namedview4359"
     showgrid="false"
     inkscape:zoom="1.334664"
     inkscape:cx="340.34099"
     inkscape:cy="274.64382"
     inkscape:window-x="1920"
     inkscape:window-y="18"
     inkscape:window-maximized="0"
     inkscape:current-layer="svg4357" />
  <clipPath
     id="g35253f5b98_1_0.0">
    <path
       d="m0 0l960.0 0l0 540.0l-960.0 0l0 -540.0z"
       clip-rule="nonzero"
       id="path4058" />
  </clipPath>
  <path
     style="fill:#ffffff;fill-rule:evenodd"
     inkscape:connector-curvature="0"
     id="path4061"
     d="M 0,0 H 960 V 540 H 0 Z" />
  <path
     style="fill:#000000;fill-opacity:0;fill-rule:evenodd"
     inkscape:connector-curvature="0"
     id="path4063"
     d="m 290.5538,142.53436 v 0 c 0,-43.08486 34.92719,-78.012054 78.01205,-78.012054 h 502.71606 c 20.69007,0 40.53272,8.219109 55.16284,22.849205 14.63007,14.630099 22.84919,34.472769 22.84919,55.162849 v 312.03888 c 0,43.08487 -34.92719,78.01209 -78.01203,78.01209 H 368.56585 c -43.08487,0 -78.01205,-34.92722 -78.01205,-78.01209 z" />
  <path
     style="fill-rule:evenodd;stroke:#595959;stroke-width:4;stroke-linecap:butt;stroke-linejoin:round"
     inkscape:connector-curvature="0"
     id="path4065"
     d="m 290.5538,142.53436 v 0 c 0,-43.08486 34.92719,-78.012054 78.01205,-78.012054 h 502.71606 c 20.69007,0 40.53272,8.219109 55.16284,22.849205 14.63007,14.630099 22.84919,34.472769 22.84919,55.162849 v 312.03888 c 0,43.08487 -34.92719,78.01209 -78.01203,78.01209 H 368.56585 c -43.08487,0 -78.01205,-34.92722 -78.01205,-78.01209 z" />
  <path
     style="fill:#000000;fill-opacity:0;fill-rule:evenodd"
     inkscape:connector-curvature="0"
     id="path4067"
     d="M 866.3622,185.13387 V 123.81103" />
  <path
     style="fill-rule:evenodd;stroke:#595959;stroke-width:1;stroke-linecap:butt;stroke-linejoin:round"
     inkscape:connector-curvature="0"
     id="path4069"
     d="M 866.3622,185.13387 V 123.81103" />
  <path
     style="fill:#000000;fill-opacity:0;fill-rule:evenodd"
     inkscape:connector-curvature="0"
     id="path4071"
     d="M 889.7598,155.07874 H 853.79129" />
  <path
     style="fill-rule:evenodd;stroke:#595959;stroke-width:1;stroke-linecap:butt;stroke-linejoin:round"
     inkscape:connector-curvature="0"
     id="path4073"
     d="M 889.7598,155.07874 H 853.79129" />
  <path
     style="fill:#000000;fill-opacity:0;fill-rule:evenodd"
     inkscape:connector-curvature="0"
     id="path4075"
     d="m 796.31757,155.07874 v 0 c 0,-36.69431 31.36127,-66.44094 70.04724,-66.44094 v 0 c 18.5777,0 36.39447,7.000008 49.53088,19.46011 13.13642,12.46009 20.51636,29.3596 20.51636,46.98083 v 0 c 0,36.69432 -31.36121,66.44095 -70.04724,66.44095 v 0 c -38.68597,0 -70.04724,-29.74663 -70.04724,-66.44095 z" />
  <path
     style="fill-rule:evenodd;stroke:#a4c2f4;stroke-width:4;stroke-linecap:butt;stroke-linejoin:round;stroke-dasharray:16, 12"
     inkscape:connector-curvature="0"
     id="path4077"
     d="m 796.31757,155.07874 v 0 c 0,-36.69431 31.36127,-66.44094 70.04724,-66.44094 v 0 c 18.5777,0 36.39447,7.000008 49.53088,19.46011 13.13642,12.46009 20.51636,29.3596 20.51636,46.98083 v 0 c 0,36.69432 -31.36121,66.44095 -70.04724,66.44095 v 0 c -38.68597,0 -70.04724,-29.74663 -70.04724,-66.44095 z" />
  <path
     style="fill:#eeeeee;fill-rule:evenodd"
     inkscape:connector-curvature="0"
     id="path4079"
     d="m 853.8058,142.23468 h 25.11548 V 167.9352 H 853.8058 Z" />
  <path
     style="fill-rule:evenodd;stroke:#595959;stroke-width:1;stroke-linecap:butt;stroke-linejoin:round"
     inkscape:connector-curvature="0"
     id="path4081"
     d="m 853.8058,142.23468 h 25.11548 V 167.9352 H 853.8058 Z" />
  <path
     style="fill:#ffffff;fill-rule:evenodd"
     inkscape:connector-curvature="0"
     id="path4083"
     d="m 857.51447,161.77332 4.28558,-4.2856 v 2.14281 h 9.12958 v -2.14281 l 4.28559,4.2856 -4.28559,4.28561 v -2.1428 h -9.12958 v 2.1428 z" />
  <path
     style="fill-rule:evenodd;stroke:#595959;stroke-width:1;stroke-linecap:butt;stroke-linejoin:round"
     inkscape:connector-curvature="0"
     id="path4085"
     d="m 857.51447,161.77332 4.28558,-4.2856 v 2.14281 h 9.12958 v -2.14281 l 4.28559,4.2856 -4.28559,4.28561 v -2.1428 h -9.12958 v 2.1428 z" />
  <path
     style="fill:#ffffff;fill-rule:evenodd"
     inkscape:connector-curvature="0"
     id="path4087"
     d="m 857.5131,148.44646 4.28558,-4.28561 v 2.1428 h 9.12958 v -2.1428 l 4.28565,4.28561 -4.28565,4.2856 v -2.14281 h -9.12958 v 2.14281 z" />
  <path
     style="fill-rule:evenodd;stroke:#595959;stroke-width:1;stroke-linecap:butt;stroke-linejoin:round"
     inkscape:connector-curvature="0"
     id="path4089"
     d="m 857.5131,148.44646 4.28558,-4.28561 v 2.1428 h 9.12958 v -2.1428 l 4.28565,4.28561 -4.28565,4.2856 v -2.14281 h -9.12958 v 2.14281 z" />
  <path
     style="fill:#eeeeee;fill-rule:evenodd"
     inkscape:connector-curvature="0"
     id="path4091"
     d="m 846.5026,102.37795 v 0 c 0,-2.36569 1.91779,-4.283463 4.28345,-4.283463 h 31.14959 c 1.13605,0 2.22559,0.451294 3.02887,1.254593 0.80335,0.80331 1.25464,1.89282 1.25464,3.02887 v 17.13386 c 0,2.36569 -1.91778,4.28346 -4.28351,4.28346 h -31.14959 c -2.36566,0 -4.28345,-1.91777 -4.28345,-4.28346 z" />
  <path
     style="fill-rule:evenodd;stroke:#595959;stroke-width:1;stroke-linecap:butt;stroke-linejoin:round"
     inkscape:connector-curvature="0"
     id="path4093"
     d="m 846.5026,102.37795 v 0 c 0,-2.36569 1.91779,-4.283463 4.28345,-4.283463 h 31.14959 c 1.13605,0 2.22559,0.451294 3.02887,1.254593 0.80335,0.80331 1.25464,1.89282 1.25464,3.02887 v 17.13386 c 0,2.36569 -1.91778,4.28346 -4.28351,4.28346 h -31.14959 c -2.36566,0 -4.28345,-1.91777 -4.28345,-4.28346 z" />
  <path
     style="fill:#eeeeee;fill-rule:evenodd"
     inkscape:connector-curvature="0"
     id="path4095"
     d="m 846.50397,189.41733 v 0 c 0,-2.36569 1.91772,-4.28346 4.28345,-4.28346 h 31.14959 c 1.13605,0 2.22559,0.45128 3.02887,1.25459 0.80329,0.8033 1.25458,1.89282 1.25458,3.02887 v 17.13385 c 0,2.36569 -1.91778,4.28346 -4.28345,4.28346 h -31.14959 c -2.36573,0 -4.28345,-1.91777 -4.28345,-4.28346 z" />
  <path
     style="fill-rule:evenodd;stroke:#595959;stroke-width:1;stroke-linecap:butt;stroke-linejoin:round"
     inkscape:connector-curvature="0"
     id="path4097"
     d="m 846.50397,189.41733 v 0 c 0,-2.36569 1.91772,-4.28346 4.28345,-4.28346 h 31.14959 c 1.13605,0 2.22559,0.45128 3.02887,1.25459 0.80329,0.8033 1.25458,1.89282 1.25458,3.02887 v 17.13385 c 0,2.36569 -1.91778,4.28346 -4.28345,4.28346 h -31.14959 c -2.36573,0 -4.28345,-1.91777 -4.28345,-4.28346 z" />
  <path
     style="fill:#eeeeee;fill-rule:evenodd"
     inkscape:connector-curvature="0"
     id="path4099"
     d="m 889.7598,146.51181 v 0 c 0,-2.36569 1.91779,-4.28346 4.28351,-4.28346 h 31.1496 c 1.13604,0 2.22552,0.45129 3.02886,1.25459 0.80329,0.80331 1.25458,1.89282 1.25458,3.02887 v 17.13386 c 0,2.3657 -1.91778,4.28347 -4.28344,4.28347 h -31.1496 c -2.36572,0 -4.28351,-1.91777 -4.28351,-4.28347 z" />
  <path
     style="fill-rule:evenodd;stroke:#595959;stroke-width:1;stroke-linecap:butt;stroke-linejoin:round"
     inkscape:connector-curvature="0"
     id="path4101"
     d="m 889.7598,146.51181 v 0 c 0,-2.36569 1.91779,-4.28346 4.28351,-4.28346 h 31.1496 c 1.13604,0 2.22552,0.45129 3.02886,1.25459 0.80329,0.80331 1.25458,1.89282 1.25458,3.02887 v 17.13386 c 0,2.3657 -1.91778,4.28347 -4.28344,4.28347 h -31.1496 c -2.36572,0 -4.28351,-1.91777 -4.28351,-4.28347 z" />
  <path
     style="fill:#000000;fill-opacity:0;fill-rule:evenodd"
     inkscape:connector-curvature="0"
     id="path4103"
     d="m 866.3609,123.79527 v 18.4252" />
  <path
     style="fill-rule:evenodd;stroke:#595959;stroke-width:1;stroke-linecap:butt;stroke-linejoin:round"
     inkscape:connector-curvature="0"
     id="path4105"
     d="m 866.3609,123.79527 v 18.4252" />
  <path
     style="fill:#000000;fill-opacity:0;fill-rule:evenodd"
     inkscape:connector-curvature="0"
     id="path4107"
     d="M 325.37534,156.06561 133.5643,140.82151" />
  <path
     style="fill-rule:evenodd;stroke:#a4c2f4;stroke-width:4;stroke-linecap:butt;stroke-linejoin:round"
     inkscape:connector-curvature="0"
     id="path4109"
     d="M 325.37534,156.06561 133.5643,140.82151" />
  <path
     style="fill:#000000;fill-opacity:0;fill-rule:evenodd"
     inkscape:connector-curvature="0"
     id="path4111"
     d="m 46.58005,66.2746 h 84.12599 v 37.98425 H 46.58005 Z" />
  <path
     style="fill:#000000;fill-rule:nonzero"
     inkscape:connector-curvature="0"
     id="path4113"
     d="M 60.4238,93.194595 V 81.413345 H 56.01755 V 79.83522 h 10.578129 v 1.578125 h -4.406254 v 11.78125 z m 14.41161,-3.109375 1.6875,0.203125 q -0.40625,1.484375 -1.484375,2.3125 -1.078125,0.8125 -2.765625,0.8125 -2.125,0 -3.375,-1.296875 -1.234375,-1.3125 -1.234375,-3.671875 0,-2.453125 1.25,-3.796875 1.265625,-1.34375 3.265625,-1.34375 1.9375,0 3.15625,1.328125 1.234375,1.3125 1.234375,3.703125 0,0.15625 0,0.4375 h -7.21875 q 0.09375,1.59375 0.90625,2.453125 0.8125,0.84375 2.015625,0.84375 0.90625,0 1.546875,-0.46875 0.640625,-0.484375 1.015625,-1.515625 z m -5.390625,-2.65625 h 5.40625 q -0.109375,-1.21875 -0.625,-1.828125 -0.78125,-0.953125 -2.03125,-0.953125 -1.125,0 -1.90625,0.765625 -0.765625,0.75 -0.84375,2.015625 z m 15.453842,4.578125 q -0.921875,0.765625 -1.765625,1.09375 -0.828125,0.3125 -1.796875,0.3125 -1.59375,0 -2.453125,-0.78125 -0.859375,-0.78125 -0.859375,-1.984375 0,-0.71875 0.328125,-1.296875 0.328125,-0.59375 0.84375,-0.9375 0.53125,-0.359375 1.1875,-0.546875 0.46875,-0.125 1.453125,-0.25 1.984375,-0.234375 2.921875,-0.5625 0.01563,-0.34375 0.01563,-0.421875 0,-1 -0.46875,-1.421875 -0.625,-0.546875 -1.875,-0.546875 -1.15625,0 -1.703125,0.40625 -0.546875,0.40625 -0.8125,1.421875 l -1.609375,-0.21875 q 0.21875,-1.015625 0.71875,-1.640625 0.5,-0.640625 1.453125,-0.984375 0.953125,-0.34375 2.1875,-0.34375 1.25,0 2.015625,0.296875 0.78125,0.28125 1.140625,0.734375 0.375,0.4375 0.515625,1.109375 0.07813,0.421875 0.07813,1.515625 v 2.1875 q 0,2.28125 0.109375,2.890625 0.109375,0.59375 0.40625,1.15625 h -1.703125 q -0.265625,-0.515625 -0.328125,-1.1875 z M 84.758002,88.33522 q -0.890625,0.375 -2.671875,0.625 -1.015625,0.140625 -1.4375,0.328125 -0.421875,0.1875 -0.65625,0.53125 -0.21875,0.34375 -0.21875,0.78125 0,0.65625 0.5,1.09375 0.5,0.4375 1.453125,0.4375 0.9375,0 1.671875,-0.40625 0.75,-0.421875 1.09375,-1.140625 0.265625,-0.5625 0.265625,-1.640625 z m 4.203842,4.859375 V 83.52272 h 1.46875 v 1.359375 q 0.453125,-0.71875 1.203125,-1.140625 0.765625,-0.4375 1.71875,-0.4375 1.078125,0 1.765625,0.453125 0.6875,0.4375 0.96875,1.234375 1.15625,-1.6875 2.984375,-1.6875 1.453121,0 2.218751,0.796875 0.78125,0.796875 0.78125,2.453125 v 6.640625 h -1.64063 v -6.09375 q 0,-0.984375 -0.15625,-1.40625 -0.15625,-0.4375 -0.578121,-0.703125 -0.421875,-0.265625 -0.984375,-0.265625 -1.015625,0 -1.6875,0.6875 -0.671875,0.671875 -0.671875,2.15625 v 5.625 h -1.640625 v -6.28125 q 0,-1.09375 -0.40625,-1.640625 -0.40625,-0.546875 -1.3125,-0.546875 -0.6875,0 -1.28125,0.359375 -0.59375,0.359375 -0.859375,1.0625 -0.25,0.703125 -0.25,2.03125 v 5.015625 z m 14.884556,-2.890625 1.625,-0.25 q 0.125,0.96875 0.75,1.5 0.625,0.515625 1.75,0.515625 1.125,0 1.67187,-0.453125 0.54688,-0.46875 0.54688,-1.09375 0,-0.546875 -0.48438,-0.875 -0.32812,-0.21875 -1.67187,-0.546875 -1.8125,-0.46875 -2.51563,-0.796875 -0.6875,-0.328125 -1.04687,-0.90625 -0.35938,-0.59375 -0.35938,-1.3125 0,-0.640625 0.29688,-1.1875 0.29687,-0.5625 0.8125,-0.921875 0.375,-0.28125 1.03125,-0.46875 0.67187,-0.203125 1.42187,-0.203125 1.14063,0 2,0.328125 0.85938,0.328125 1.26563,0.890625 0.42187,0.5625 0.57812,1.5 l -1.60937,0.21875 q -0.10938,-0.75 -0.64063,-1.171875 -0.51562,-0.421875 -1.46875,-0.421875 -1.14062,0 -1.625,0.375 -0.46875,0.375 -0.46875,0.875 0,0.3125 0.1875,0.578125 0.20313,0.265625 0.64063,0.4375 0.23437,0.09375 1.4375,0.421875 1.75,0.453125 2.4375,0.75 0.6875,0.296875 1.07812,0.859375 0.39063,0.5625 0.39063,1.40625 0,0.828125 -0.48438,1.546875 -0.46875,0.71875 -1.375,1.125 -0.90625,0.390625 -2.04687,0.390625 -1.875,0 -2.875,-0.78125 -0.98438,-0.78125 -1.25,-2.328125 z" />
  <path
     style="fill:#eeeeee;fill-rule:evenodd"
     inkscape:connector-curvature="0"
     id="path4115"
     d="m 325.37534,120.78776 v 0 c 0,-9.74129 7.89685,-17.63815 17.63815,-17.63815 h 149.66858 c 4.67792,0 9.16425,1.8583 12.47205,5.16609 3.3078,3.3078 5.16611,7.79413 5.16611,12.47206 v 70.55047 c 0,9.74129 -7.89689,17.63815 -17.63816,17.63815 H 343.01349 c -9.7413,0 -17.63815,-7.89686 -17.63815,-17.63815 z" />
  <path
     style="fill-rule:evenodd;stroke:#595959;stroke-width:1;stroke-linecap:butt;stroke-linejoin:round"
     inkscape:connector-curvature="0"
     id="path4117"
     d="m 325.37534,120.78776 v 0 c 0,-9.74129 7.89685,-17.63815 17.63815,-17.63815 h 149.66858 c 4.67792,0 9.16425,1.8583 12.47205,5.16609 3.3078,3.3078 5.16611,7.79413 5.16611,12.47206 v 70.55047 c 0,9.74129 -7.89689,17.63815 -17.63816,17.63815 H 343.01349 c -9.7413,0 -17.63815,-7.89686 -17.63815,-17.63815 z" />
  <path
     style="fill:#000000;fill-opacity:0;fill-rule:evenodd"
     inkscape:connector-curvature="0"
     id="path4121"
     d="m 601.084,161.76378 252.72443,-6.67717" />
  <path
     style="fill-rule:evenodd;stroke:#a4c2f4;stroke-width:3.39236403;stroke-linecap:butt;stroke-linejoin:round"
     inkscape:connector-curvature="0"
     id="path4123"
     d="m 601.45854,155.13261 252.34997,-0.046" />
  <path
     style="fill:#000000;fill-opacity:0;fill-rule:evenodd"
     inkscape:connector-curvature="0"
     id="path4125"
     d="M 866.3622,331.31497 V 269.99212" />
  <path
     style="fill-rule:evenodd;stroke:#595959;stroke-width:1;stroke-linecap:butt;stroke-linejoin:round"
     inkscape:connector-curvature="0"
     id="path4127"
     d="M 866.3622,331.31497 V 269.99212" />
  <path
     style="fill:#000000;fill-opacity:0;fill-rule:evenodd"
     inkscape:connector-curvature="0"
     id="path4129"
     d="M 889.7598,301.25986 H 853.79129" />
  <path
     style="fill-rule:evenodd;stroke:#595959;stroke-width:1;stroke-linecap:butt;stroke-linejoin:round"
     inkscape:connector-curvature="0"
     id="path4131"
     d="M 889.7598,301.25986 H 853.79129" />
  <path
     style="fill:#000000;fill-opacity:0;fill-rule:evenodd"
     inkscape:connector-curvature="0"
     id="path4133"
     d="m 796.31757,300.64435 v 0 c 0,-36.69431 31.36127,-66.44093 70.04724,-66.44093 v 0 c 18.5777,0 36.39447,7 49.53088,19.4601 13.13642,12.46008 20.51636,29.35962 20.51636,46.98083 v 0 c 0,36.69434 -31.36121,66.44095 -70.04724,66.44095 v 0 c -38.68597,0 -70.04724,-29.74661 -70.04724,-66.44095 z" />
  <path
     style="fill-rule:evenodd;stroke:#b6d7a8;stroke-width:4;stroke-linecap:butt;stroke-linejoin:round;stroke-dasharray:16, 12"
     inkscape:connector-curvature="0"
     id="path4135"
     d="m 796.31757,300.64435 v 0 c 0,-36.69431 31.36127,-66.44093 70.04724,-66.44093 v 0 c 18.5777,0 36.39447,7 49.53088,19.4601 13.13642,12.46008 20.51636,29.35962 20.51636,46.98083 v 0 c 0,36.69434 -31.36121,66.44095 -70.04724,66.44095 v 0 c -38.68597,0 -70.04724,-29.74661 -70.04724,-66.44095 z" />
  <path
     style="fill:#eeeeee;fill-rule:evenodd"
     inkscape:connector-curvature="0"
     id="path4137"
     d="m 853.8058,288.4158 h 25.11548 v 25.7005 H 853.8058 Z" />
  <path
     style="fill-rule:evenodd;stroke:#595959;stroke-width:1;stroke-linecap:butt;stroke-linejoin:round"
     inkscape:connector-curvature="0"
     id="path4139"
     d="m 853.8058,288.4158 h 25.11548 v 25.7005 H 853.8058 Z" />
  <path
     style="fill:#ffffff;fill-rule:evenodd"
     inkscape:connector-curvature="0"
     id="path4141"
     d="m 857.51447,307.95444 4.28558,-4.28561 v 2.14279 h 9.12958 v -2.14279 l 4.28559,4.28561 -4.28559,4.28558 v -2.14279 h -9.12958 v 2.14279 z" />
  <path
     style="fill-rule:evenodd;stroke:#595959;stroke-width:1;stroke-linecap:butt;stroke-linejoin:round"
     inkscape:connector-curvature="0"
     id="path4143"
     d="m 857.51447,307.95444 4.28558,-4.28561 v 2.14279 h 9.12958 v -2.14279 l 4.28559,4.28561 -4.28559,4.28558 v -2.14279 h -9.12958 v 2.14279 z" />
  <path
     style="fill:#ffffff;fill-rule:evenodd"
     inkscape:connector-curvature="0"
     id="path4145"
     d="m 857.5131,294.62756 4.28558,-4.28561 v 2.14279 h 9.12958 v -2.14279 l 4.28565,4.28561 -4.28565,4.28558 v -2.14279 h -9.12958 v 2.14279 z" />
  <path
     style="fill-rule:evenodd;stroke:#595959;stroke-width:1;stroke-linecap:butt;stroke-linejoin:round"
     inkscape:connector-curvature="0"
     id="path4147"
     d="m 857.5131,294.62756 4.28558,-4.28561 v 2.14279 h 9.12958 v -2.14279 l 4.28565,4.28561 -4.28565,4.28558 v -2.14279 h -9.12958 v 2.14279 z" />
  <path
     style="fill:#eeeeee;fill-rule:evenodd"
     inkscape:connector-curvature="0"
     id="path4149"
     d="m 846.5026,248.55905 v 0 c 0,-2.36569 1.91779,-4.28346 4.28345,-4.28346 h 31.14959 c 1.13605,0 2.22559,0.45129 3.02887,1.25459 0.80335,0.80331 1.25464,1.89282 1.25464,3.02887 v 17.13385 c 0,2.36569 -1.91778,4.28348 -4.28351,4.28348 h -31.14959 c -2.36566,0 -4.28345,-1.91779 -4.28345,-4.28348 z" />
  <path
     style="fill-rule:evenodd;stroke:#595959;stroke-width:1;stroke-linecap:butt;stroke-linejoin:round"
     inkscape:connector-curvature="0"
     id="path4151"
     d="m 846.5026,248.55905 v 0 c 0,-2.36569 1.91779,-4.28346 4.28345,-4.28346 h 31.14959 c 1.13605,0 2.22559,0.45129 3.02887,1.25459 0.80335,0.80331 1.25464,1.89282 1.25464,3.02887 v 17.13385 c 0,2.36569 -1.91778,4.28348 -4.28351,4.28348 h -31.14959 c -2.36566,0 -4.28345,-1.91779 -4.28345,-4.28348 z" />
  <path
     style="fill:#eeeeee;fill-rule:evenodd"
     inkscape:connector-curvature="0"
     id="path4153"
     d="m 846.50397,335.59842 v 0 c 0,-2.36569 1.91772,-4.28345 4.28345,-4.28345 h 31.14959 c 1.13605,0 2.22559,0.4513 3.02887,1.25458 0.80329,0.80331 1.25458,1.89282 1.25458,3.02887 v 17.13385 c 0,2.36569 -1.91778,4.28348 -4.28345,4.28348 h -31.14959 c -2.36573,0 -4.28345,-1.91779 -4.28345,-4.28348 z" />
  <path
     style="fill-rule:evenodd;stroke:#595959;stroke-width:1;stroke-linecap:butt;stroke-linejoin:round"
     inkscape:connector-curvature="0"
     id="path4155"
     d="m 846.50397,335.59842 v 0 c 0,-2.36569 1.91772,-4.28345 4.28345,-4.28345 h 31.14959 c 1.13605,0 2.22559,0.4513 3.02887,1.25458 0.80329,0.80331 1.25458,1.89282 1.25458,3.02887 v 17.13385 c 0,2.36569 -1.91778,4.28348 -4.28345,4.28348 h -31.14959 c -2.36573,0 -4.28345,-1.91779 -4.28345,-4.28348 z" />
  <path
     style="fill:#eeeeee;fill-rule:evenodd"
     inkscape:connector-curvature="0"
     id="path4157"
     d="m 889.7598,292.6929 v 0 c 0,-2.36569 1.91779,-4.28345 4.28351,-4.28345 h 31.1496 c 1.13604,0 2.22552,0.4513 3.02886,1.25458 0.80329,0.80331 1.25458,1.89282 1.25458,3.02887 v 17.13388 c 0,2.36569 -1.91778,4.28345 -4.28344,4.28345 h -31.1496 c -2.36572,0 -4.28351,-1.91776 -4.28351,-4.28345 z" />
  <path
     style="fill-rule:evenodd;stroke:#595959;stroke-width:1;stroke-linecap:butt;stroke-linejoin:round"
     inkscape:connector-curvature="0"
     id="path4159"
     d="m 889.7598,292.6929 v 0 c 0,-2.36569 1.91779,-4.28345 4.28351,-4.28345 h 31.1496 c 1.13604,0 2.22552,0.4513 3.02886,1.25458 0.80329,0.80331 1.25458,1.89282 1.25458,3.02887 v 17.13388 c 0,2.36569 -1.91778,4.28345 -4.28344,4.28345 h -31.1496 c -2.36572,0 -4.28351,-1.91776 -4.28351,-4.28345 z" />
  <path
     style="fill:#000000;fill-opacity:0;fill-rule:evenodd"
     inkscape:connector-curvature="0"
     id="path4161"
     d="m 866.3609,269.97638 v 18.4252" />
  <path
     style="fill-rule:evenodd;stroke:#595959;stroke-width:1;stroke-linecap:butt;stroke-linejoin:round"
     inkscape:connector-curvature="0"
     id="path4163"
     d="m 866.3609,269.97638 v 18.4252" />
  <path
     style="fill:#b6d7a8;fill-rule:evenodd"
     inkscape:connector-curvature="0"
     id="path4165"
     d="m 37.745407,217.88715 v 0 c 0,-5.53445 4.486553,-10.02101 10.020996,-10.02101 h 78.698167 c 2.65773,0 5.2066,1.05579 7.08591,2.93509 1.8793,1.8793 2.93508,4.42818 2.93508,7.08592 v 40.08398 c 0,5.53446 -4.48655,10.021 -10.02099,10.021 H 47.766403 c -5.534443,0 -10.020996,-4.48654 -10.020996,-10.021 z" />
  <path
     style="fill-rule:evenodd;stroke:#595959;stroke-width:1;stroke-linecap:butt;stroke-linejoin:round"
     inkscape:connector-curvature="0"
     id="path4167"
     d="m 37.745407,217.88715 v 0 c 0,-5.53445 4.486553,-10.02101 10.020996,-10.02101 h 78.698167 c 2.65773,0 5.2066,1.05579 7.08591,2.93509 1.8793,1.8793 2.93508,4.42818 2.93508,7.08592 v 40.08398 c 0,5.53446 -4.48655,10.021 -10.02099,10.021 H 47.766403 c -5.534443,0 -10.020996,-4.48654 -10.020996,-10.021 z" />
  <path
     style="fill:#000000;fill-rule:nonzero"
     inkscape:connector-curvature="0"
     id="path4169"
     d="m 59.883583,231.48976 h 1.765625 v 7.71875 q 0,2.01562 -0.453125,3.20312 -0.453125,1.1875 -1.640625,1.9375 -1.1875,0.73438 -3.125,0.73438 -1.875,0 -3.078125,-0.64063 -1.1875,-0.65625 -1.703125,-1.875 -0.5,-1.23437 -0.5,-3.35937 v -7.71875 h 1.765625 v 7.71875 q 0,1.73437 0.3125,2.5625 0.328125,0.8125 1.109375,1.26562 0.796875,0.45313 1.9375,0.45313 1.953125,0 2.78125,-0.89063 0.828125,-0.89062 0.828125,-3.39062 z m 3.847946,10.46875 1.625,-0.25 q 0.125,0.96875 0.75,1.5 0.625,0.51562 1.75,0.51562 1.125,0 1.671875,-0.45312 0.546875,-0.46875 0.546875,-1.09375 0,-0.54688 -0.484375,-0.875 -0.328125,-0.21875 -1.671875,-0.54688 -1.8125,-0.46875 -2.515625,-0.79687 -0.6875,-0.32813 -1.046875,-0.90625 -0.359375,-0.59375 -0.359375,-1.3125 0,-0.64063 0.296875,-1.1875 0.296875,-0.5625 0.8125,-0.92188 0.375,-0.28125 1.03125,-0.46875 0.671875,-0.20312 1.421875,-0.20312 1.140625,0 2,0.32812 0.859375,0.32813 1.265625,0.89063 0.421875,0.5625 0.578125,1.5 l -1.609375,0.21875 q -0.109375,-0.75 -0.640625,-1.17188 -0.515625,-0.42187 -1.46875,-0.42187 -1.140625,0 -1.625,0.375 -0.46875,0.375 -0.46875,0.875 0,0.3125 0.1875,0.57812 0.203125,0.26563 0.640625,0.4375 0.234375,0.0937 1.4375,0.42188 1.75,0.45312 2.4375,0.75 0.6875,0.29687 1.078125,0.85937 0.390625,0.5625 0.390625,1.40625 0,0.82813 -0.484375,1.54688 -0.46875,0.71875 -1.375,1.125 -0.90625,0.39062 -2.046875,0.39062 -1.875,0 -2.875,-0.78125 -0.984375,-0.78125 -1.25,-2.32812 z m 16.609375,-0.21875 1.6875,0.20312 q -0.40625,1.48438 -1.484375,2.3125 -1.078125,0.8125 -2.765625,0.8125 -2.125,0 -3.375,-1.29687 -1.234375,-1.3125 -1.234375,-3.67188 0,-2.45312 1.25,-3.79687 1.265625,-1.34375 3.265625,-1.34375 1.9375,0 3.15625,1.32812 1.234375,1.3125 1.234375,3.70313 0,0.15625 0,0.4375 h -7.21875 q 0.09375,1.59375 0.90625,2.45312 0.8125,0.84375 2.015625,0.84375 0.90625,0 1.546875,-0.46875 0.640625,-0.48437 1.015625,-1.51562 z m -5.390625,-2.65625 h 5.40625 q -0.109375,-1.21875 -0.625,-1.82813 -0.78125,-0.95312 -2.03125,-0.95312 -1.125,0 -1.90625,0.76562 -0.765625,0.75 -0.84375,2.01563 z m 9.125717,5.76562 v -9.67187 h 1.46875 v 1.46875 q 0.5625,-1.03125 1.03125,-1.35938 0.484375,-0.32812 1.0625,-0.32812 0.828125,0 1.6875,0.53125 l -0.5625,1.51562 q -0.609375,-0.35937 -1.203125,-0.35937 -0.546875,0 -0.96875,0.32812 -0.421875,0.32813 -0.609375,0.89063 -0.28125,0.875 -0.28125,1.92187 v 5.0625 z" />
  <path
     style="fill:#000000;fill-opacity:0;fill-rule:evenodd"
     inkscape:connector-curvature="0"
     id="path4171"
     d="m 136.48557,237.92914 188.8819,-81.85828" />
  <path
     style="fill-rule:evenodd;stroke:#b6d7a8;stroke-width:4;stroke-linecap:butt;stroke-linejoin:round"
     inkscape:connector-curvature="0"
     id="path4173"
     d="m 136.48557,237.92914 188.8819,-81.85828" />
  <path
     style="fill:#000000;fill-opacity:0;fill-rule:evenodd"
     inkscape:connector-curvature="0"
     id="path4175"
     d="m 601.084,161.76378 252.72443,136.7874" />
  <path
     style="fill-rule:evenodd;stroke:#b6d7a8;stroke-width:4.10161352;stroke-linecap:butt;stroke-linejoin:round"
     inkscape:connector-curvature="0"
     id="path4177"
     d="M 600.81911,154.87636 853.80843,298.55118" />
  <path
     style="fill:#eeeeee;fill-rule:evenodd"
     inkscape:connector-curvature="0"
     id="path4179"
     d="m 380.17322,163.18373 v 0 c 0,-3.41808 2.67926,-6.18898 5.98425,-6.18898 v 0 c 1.58713,0 3.10926,0.65205 4.23151,1.81271 1.12228,1.16066 1.75275,2.73485 1.75275,4.37627 v 0 c 0,3.41808 -2.67923,6.18897 -5.98426,6.18897 v 0 c -3.30499,0 -5.98425,-2.77089 -5.98425,-6.18897 z" />
  <path
     style="fill:#000000;fill-opacity:0;fill-rule:evenodd"
     inkscape:connector-curvature="0"
     id="path4181"
     d="m 386.15747,156.99475 v 12.37795 m -5.98425,-6.18897 h 11.9685" />
  <path
     style="fill:#000000;fill-opacity:0;fill-rule:evenodd"
     inkscape:connector-curvature="0"
     id="path4183"
     d="m 380.17322,163.18373 v 0 c 0,-3.41808 2.67926,-6.18898 5.98425,-6.18898 v 0 c 1.58713,0 3.10926,0.65205 4.23151,1.81271 1.12228,1.16066 1.75275,2.73485 1.75275,4.37627 v 0 c 0,3.41808 -2.67923,6.18897 -5.98426,6.18897 v 0 c -3.30499,0 -5.98425,-2.77089 -5.98425,-6.18897 z" />
  <path
     style="fill-rule:evenodd;stroke:#595959;stroke-width:1;stroke-linecap:butt;stroke-linejoin:round"
     inkscape:connector-curvature="0"
     id="path4185"
     d="m 385.89257,150.10733 v 12.37795 m -5.98425,-6.18897 h 11.9685" />
  <path
     style="fill-rule:evenodd;stroke:#595959;stroke-width:1;stroke-linecap:butt;stroke-linejoin:round"
     inkscape:connector-curvature="0"
     id="path4187"
     d="m 379.90832,156.29631 v 0 c 0,-3.41808 2.67926,-6.18898 5.98425,-6.18898 v 0 c 1.58713,0 3.10926,0.65205 4.23151,1.81271 1.12228,1.16066 1.75275,2.73485 1.75275,4.37627 v 0 c 0,3.41808 -2.67923,6.18897 -5.98426,6.18897 v 0 c -3.30499,0 -5.98425,-2.77089 -5.98425,-6.18897 z" />
  <path
     style="fill:#000000;fill-opacity:0;fill-rule:evenodd"
     inkscape:connector-curvature="0"
     id="path4189"
     d="M 886.8989,446.82678 H 850.93039" />
  <path
     style="fill-rule:evenodd;stroke:#595959;stroke-width:1;stroke-linecap:butt;stroke-linejoin:round"
     inkscape:connector-curvature="0"
     id="path4191"
     d="M 886.8989,446.82678 H 850.93039" />
  <path
     style="fill:#000000;fill-opacity:0;fill-rule:evenodd"
     inkscape:connector-curvature="0"
     id="path4193"
     d="M 863.50134,476.8819 V 415.55905" />
  <path
     style="fill-rule:evenodd;stroke:#595959;stroke-width:1;stroke-linecap:butt;stroke-linejoin:round"
     inkscape:connector-curvature="0"
     id="path4195"
     d="M 863.50134,476.8819 V 415.55905" />
  <path
     style="fill:#000000;fill-opacity:0;fill-rule:evenodd"
     inkscape:connector-curvature="0"
     id="path4197"
     d="m 796.31757,446.2126 v 0 c 0,-36.6943 31.36127,-66.44092 70.04724,-66.44092 v 0 c 18.5777,0 36.39447,7 49.53088,19.46008 13.13642,12.46012 20.51636,29.35962 20.51636,46.98084 v 0 c 0,36.69433 -31.36121,66.44098 -70.04724,66.44098 v 0 c -38.68597,0 -70.04724,-29.74664 -70.04724,-66.44098 z" />
  <path
     style="fill-rule:evenodd;stroke:#d5a6bd;stroke-width:4;stroke-linecap:butt;stroke-linejoin:round;stroke-dasharray:16, 12"
     inkscape:connector-curvature="0"
     id="path4199"
     d="m 796.31757,446.2126 v 0 c 0,-36.6943 31.36127,-66.44092 70.04724,-66.44092 v 0 c 18.5777,0 36.39447,7 49.53088,19.46008 13.13642,12.46012 20.51636,29.35962 20.51636,46.98084 v 0 c 0,36.69433 -31.36121,66.44098 -70.04724,66.44098 v 0 c -38.68597,0 -70.04724,-29.74664 -70.04724,-66.44098 z" />
  <path
     style="fill:#eeeeee;fill-rule:evenodd"
     inkscape:connector-curvature="0"
     id="path4201"
     d="m 850.9449,433.98273 h 25.11548 v 25.7005 H 850.9449 Z" />
  <path
     style="fill-rule:evenodd;stroke:#595959;stroke-width:1;stroke-linecap:butt;stroke-linejoin:round"
     inkscape:connector-curvature="0"
     id="path4203"
     d="m 850.9449,433.98273 h 25.11548 v 25.7005 H 850.9449 Z" />
  <path
     style="fill:#ffffff;fill-rule:evenodd"
     inkscape:connector-curvature="0"
     id="path4205"
     d="m 854.65356,453.52136 4.28558,-4.28561 v 2.14279 h 9.12958 v -2.14279 l 4.28559,4.28561 -4.28559,4.28558 v -2.14279 h -9.12958 v 2.14279 z" />
  <path
     style="fill-rule:evenodd;stroke:#595959;stroke-width:1;stroke-linecap:butt;stroke-linejoin:round"
     inkscape:connector-curvature="0"
     id="path4207"
     d="m 854.65356,453.52136 4.28558,-4.28561 v 2.14279 h 9.12958 v -2.14279 l 4.28559,4.28561 -4.28559,4.28558 v -2.14279 h -9.12958 v 2.14279 z" />
  <path
     style="fill:#ffffff;fill-rule:evenodd"
     inkscape:connector-curvature="0"
     id="path4209"
     d="m 854.6522,440.1945 4.28564,-4.28561 v 2.14279 h 9.12952 v -2.14279 l 4.28565,4.28561 -4.28565,4.28561 v -2.14282 h -9.12952 v 2.14282 z" />
  <path
     style="fill-rule:evenodd;stroke:#595959;stroke-width:1;stroke-linecap:butt;stroke-linejoin:round"
     inkscape:connector-curvature="0"
     id="path4211"
     d="m 854.6522,440.1945 4.28564,-4.28561 v 2.14279 h 9.12952 v -2.14279 l 4.28565,4.28561 -4.28565,4.28561 v -2.14282 h -9.12952 v 2.14282 z" />
  <path
     style="fill:#eeeeee;fill-rule:evenodd"
     inkscape:connector-curvature="0"
     id="path4213"
     d="m 843.6417,394.12598 v 0 c 0,-2.36569 1.91779,-4.28345 4.28345,-4.28345 h 31.14966 c 1.13604,0 2.22552,0.4513 3.02886,1.25458 0.80329,0.80331 1.25458,1.89282 1.25458,3.02887 v 17.13388 c 0,2.36569 -1.91778,4.28345 -4.28344,4.28345 h -31.14966 c -2.36566,0 -4.28345,-1.91776 -4.28345,-4.28345 z" />
  <path
     style="fill-rule:evenodd;stroke:#595959;stroke-width:1;stroke-linecap:butt;stroke-linejoin:round"
     inkscape:connector-curvature="0"
     id="path4215"
     d="m 843.6417,394.12598 v 0 c 0,-2.36569 1.91779,-4.28345 4.28345,-4.28345 h 31.14966 c 1.13604,0 2.22552,0.4513 3.02886,1.25458 0.80329,0.80331 1.25458,1.89282 1.25458,3.02887 v 17.13388 c 0,2.36569 -1.91778,4.28345 -4.28344,4.28345 h -31.14966 c -2.36566,0 -4.28345,-1.91776 -4.28345,-4.28345 z" />
  <path
     style="fill:#eeeeee;fill-rule:evenodd"
     inkscape:connector-curvature="0"
     id="path4217"
     d="m 843.64307,481.16534 v 0 c 0,-2.36569 1.91772,-4.28345 4.28345,-4.28345 h 31.14959 c 1.13605,0 2.22559,0.4513 3.02887,1.25458 0.80329,0.80331 1.25458,1.89282 1.25458,3.02887 v 17.13388 c 0,2.36569 -1.91772,4.28345 -4.28345,4.28345 h -31.14959 c -2.36573,0 -4.28345,-1.91776 -4.28345,-4.28345 z" />
  <path
     style="fill-rule:evenodd;stroke:#595959;stroke-width:1;stroke-linecap:butt;stroke-linejoin:round"
     inkscape:connector-curvature="0"
     id="path4219"
     d="m 843.64307,481.16534 v 0 c 0,-2.36569 1.91772,-4.28345 4.28345,-4.28345 h 31.14959 c 1.13605,0 2.22559,0.4513 3.02887,1.25458 0.80329,0.80331 1.25458,1.89282 1.25458,3.02887 v 17.13388 c 0,2.36569 -1.91772,4.28345 -4.28345,4.28345 h -31.14959 c -2.36573,0 -4.28345,-1.91776 -4.28345,-4.28345 z" />
  <path
     style="fill:#eeeeee;fill-rule:evenodd"
     inkscape:connector-curvature="0"
     id="path4221"
     d="m 886.8989,438.25986 v 0 c 0,-2.36569 1.91779,-4.28348 4.28351,-4.28348 h 31.1496 c 1.13604,0 2.22552,0.4513 3.02886,1.25461 0.80329,0.80328 1.25458,1.89282 1.25458,3.02887 v 17.13385 c 0,2.36569 -1.91778,4.28345 -4.28344,4.28345 h -31.1496 c -2.36572,0 -4.28351,-1.91776 -4.28351,-4.28345 z" />
  <path
     style="fill-rule:evenodd;stroke:#595959;stroke-width:1;stroke-linecap:butt;stroke-linejoin:round"
     inkscape:connector-curvature="0"
     id="path4223"
     d="m 886.8989,438.25986 v 0 c 0,-2.36569 1.91779,-4.28348 4.28351,-4.28348 h 31.1496 c 1.13604,0 2.22552,0.4513 3.02886,1.25461 0.80329,0.80328 1.25458,1.89282 1.25458,3.02887 v 17.13385 c 0,2.36569 -1.91778,4.28345 -4.28344,4.28345 h -31.1496 c -2.36572,0 -4.28351,-1.91776 -4.28351,-4.28345 z" />
  <path
     style="fill:#000000;fill-opacity:0;fill-rule:evenodd"
     inkscape:connector-curvature="0"
     id="path4225"
     d="m 863.5,415.5433 v 18.4252" />
  <path
     style="fill-rule:evenodd;stroke:#595959;stroke-width:1;stroke-linecap:butt;stroke-linejoin:round"
     inkscape:connector-curvature="0"
     id="path4227"
     d="m 863.5,415.5433 v 18.4252" />
  <path
     style="fill:#000000;fill-opacity:0;fill-rule:evenodd"
     inkscape:connector-curvature="0"
     id="path4229"
     d="M 325.37534,156.06299 133.5643,366.99213" />
  <path
     style="fill-rule:evenodd;stroke:#d5a6bd;stroke-width:4;stroke-linecap:butt;stroke-linejoin:round"
     inkscape:connector-curvature="0"
     id="path4231"
     d="M 325.37534,156.06299 133.5643,366.99213" />
  <path
     style="fill:#d5a6bd;fill-rule:evenodd"
     inkscape:connector-curvature="0"
     id="path4233"
     d="m 34.824146,346.9449 v 0 c 0,-5.53445 4.486553,-10.021 10.021,-10.021 h 78.698164 c 2.65773,0 5.20662,1.05579 7.08592,2.93509 1.8793,1.87931 2.93507,4.42816 2.93507,7.08591 v 40.08398 c 0,5.53446 -4.48655,10.021 -10.02099,10.021 H 44.845146 c -5.534447,0 -10.021,-4.48654 -10.021,-10.021 z" />
  <path
     style="fill-rule:evenodd;stroke:#595959;stroke-width:1;stroke-linecap:butt;stroke-linejoin:round"
     inkscape:connector-curvature="0"
     id="path4235"
     d="m 34.824146,346.9449 v 0 c 0,-5.53445 4.486553,-10.021 10.021,-10.021 h 78.698164 c 2.65773,0 5.20662,1.05579 7.08592,2.93509 1.8793,1.87931 2.93507,4.42816 2.93507,7.08591 v 40.08398 c 0,5.53446 -4.48655,10.021 -10.02099,10.021 H 44.845146 c -5.534447,0 -10.021,-4.48654 -10.021,-10.021 z" />
  <path
     style="fill:#000000;fill-rule:nonzero"
     inkscape:connector-curvature="0"
     id="path4237"
     d="m 56.962322,360.54752 h 1.765625 v 7.71875 q 0,2.01563 -0.453125,3.20313 -0.453125,1.1875 -1.640625,1.9375 -1.1875,0.73437 -3.125,0.73437 -1.875,0 -3.078125,-0.64062 -1.1875,-0.65625 -1.703125,-1.875 -0.5,-1.23438 -0.5,-3.35938 v -7.71875 h 1.765625 v 7.71875 q 0,1.73438 0.3125,2.5625 0.328125,0.8125 1.109375,1.26563 0.796875,0.45312 1.9375,0.45312 1.953125,0 2.78125,-0.89062 0.828125,-0.89063 0.828125,-3.39063 z m 3.847946,10.46875 1.625,-0.25 q 0.125,0.96875 0.75,1.5 0.625,0.51563 1.749996,0.51563 1.125,0 1.671875,-0.45313 0.546875,-0.46875 0.546875,-1.09375 0,-0.54687 -0.484375,-0.875 -0.328125,-0.21875 -1.671875,-0.54687 -1.812496,-0.46875 -2.515621,-0.79688 -0.6875,-0.32812 -1.046875,-0.90625 -0.359375,-0.59375 -0.359375,-1.3125 0,-0.64062 0.296875,-1.1875 0.296875,-0.5625 0.8125,-0.92187 0.375,-0.28125 1.03125,-0.46875 0.671875,-0.20313 1.421871,-0.20313 1.140625,0 2,0.32813 0.859375,0.32812 1.265625,0.89062 0.421875,0.5625 0.578125,1.5 l -1.609375,0.21875 q -0.109375,-0.75 -0.640625,-1.17187 -0.515625,-0.42188 -1.46875,-0.42188 -1.140621,0 -1.624996,0.375 -0.46875,0.375 -0.46875,0.875 0,0.3125 0.1875,0.57813 0.203125,0.26562 0.640625,0.4375 0.234375,0.0937 1.437496,0.42187 1.75,0.45313 2.4375,0.75 0.6875,0.29688 1.078125,0.85938 0.390625,0.5625 0.390625,1.40625 0,0.82812 -0.484375,1.54687 -0.46875,0.71875 -1.375,1.125 -0.90625,0.39063 -2.046875,0.39063 -1.874996,0 -2.874996,-0.78125 -0.984375,-0.78125 -1.25,-2.32813 z m 16.609371,-0.21875 1.6875,0.20313 q -0.40625,1.48437 -1.484375,2.3125 -1.078125,0.8125 -2.765625,0.8125 -2.125,0 -3.375,-1.29688 -1.234375,-1.3125 -1.234375,-3.67187 0,-2.45313 1.25,-3.79688 1.265625,-1.34375 3.265625,-1.34375 1.9375,0 3.15625,1.32813 1.234375,1.3125 1.234375,3.70312 0,0.15625 0,0.4375 h -7.21875 q 0.09375,1.59375 0.90625,2.45313 0.8125,0.84375 2.015625,0.84375 0.90625,0 1.546875,-0.46875 0.640625,-0.48438 1.015625,-1.51563 z m -5.390625,-2.65625 h 5.40625 q -0.109375,-1.21875 -0.625,-1.82812 -0.78125,-0.95313 -2.03125,-0.95313 -1.125,0 -1.90625,0.76563 -0.765625,0.75 -0.84375,2.01562 z m 9.125717,5.76563 v -9.67188 h 1.46875 v 1.46875 q 0.5625,-1.03125 1.03125,-1.35937 0.484375,-0.32813 1.0625,-0.32813 0.828125,0 1.6875,0.53125 l -0.5625,1.51563 q -0.609375,-0.35938 -1.203125,-0.35938 -0.546875,0 -0.96875,0.32813 -0.421875,0.32812 -0.609375,0.89062 -0.28125,0.875 -0.28125,1.92188 v 5.0625 z" />
  <path
     style="fill:#000000;fill-opacity:0;fill-rule:evenodd"
     inkscape:connector-curvature="0"
     id="path4239"
     d="M 601.084,161.76378 853.80843,446.2047" />
  <path
     style="fill-rule:evenodd;stroke:#d5a6bd;stroke-width:4.05025911;stroke-linecap:butt;stroke-linejoin:round"
     inkscape:connector-curvature="0"
     id="path4241"
     d="M 600.8191,154.87636 853.80843,446.2047" />
  <path
     style="fill:#000000;fill-opacity:0;fill-rule:evenodd"
     inkscape:connector-curvature="0"
     id="path4243"
     d="M 392.14172,163.18373 587.3858,161.7664" />
  <path
     style="fill-rule:evenodd;stroke:#595959;stroke-width:4;stroke-linecap:butt;stroke-linejoin:round"
     inkscape:connector-curvature="0"
     id="path4245"
     d="M 391.87682,156.29631 587.1209,154.87898" />
  <path
     style="fill:#eeeeee;fill-rule:evenodd"
     inkscape:connector-curvature="0"
     id="path4247"
     d="m 587.1183,154.87636 v 0 c 0,-4.20953 3.06708,-7.62204 6.8504,-7.62204 v 0 c 1.81684,0 3.55927,0.80302 4.844,2.23244 1.28466,1.42941 2.00641,3.36812 2.00641,5.3896 v 0 c 0,4.20953 -3.06702,7.62205 -6.85041,7.62205 v 0 c -3.78332,0 -6.8504,-3.41252 -6.8504,-7.62205 z" />
  <path
     style="fill:#000000;fill-opacity:0;fill-rule:evenodd"
     inkscape:connector-curvature="0"
     id="path4249"
     d="m 594.2336,154.14174 v 15.24409 m -6.8504,-7.62205 h 13.7008" />
  <path
     style="fill:#000000;fill-opacity:0;fill-rule:evenodd"
     inkscape:connector-curvature="0"
     id="path4251"
     d="m 587.3832,161.76378 v 0 c 0,-4.20953 3.06708,-7.62204 6.8504,-7.62204 v 0 c 1.81684,0 3.55927,0.80302 4.844,2.23244 1.28466,1.42941 2.00641,3.36812 2.00641,5.3896 v 0 c 0,4.20953 -3.06702,7.62205 -6.85041,7.62205 v 0 c -3.78332,0 -6.8504,-3.41252 -6.8504,-7.62205 z" />
  <path
     style="fill-rule:evenodd;stroke:#595959;stroke-width:1;stroke-linecap:butt;stroke-linejoin:round"
     inkscape:connector-curvature="0"
     id="path4253"
     d="m 593.9687,147.25432 v 15.24409 m -6.8504,-7.62205 h 13.7008" />
  <path
     style="fill-rule:evenodd;stroke:#595959;stroke-width:1;stroke-linecap:butt;stroke-linejoin:round"
     inkscape:connector-curvature="0"
     id="path4255"
     d="m 587.1183,154.87636 v 0 c 0,-4.20953 3.06708,-7.62204 6.8504,-7.62204 v 0 c 1.81684,0 3.55927,0.80302 4.844,2.23244 1.28466,1.42941 2.00641,3.36812 2.00641,5.3896 v 0 c 0,4.20953 -3.06702,7.62205 -6.85041,7.62205 v 0 c -3.78332,0 -6.8504,-3.41252 -6.8504,-7.62205 z" />
  <path
     style="fill:#eeeeee;fill-rule:evenodd"
     inkscape:connector-curvature="0"
     id="path4257"
     d="m 325.36615,409.3231 v 0 c 0,-6.77832 5.4949,-12.27322 12.27319,-12.27322 h 90.19376 c 3.25503,0 6.3768,1.29306 8.67847,3.59475 2.30166,2.30167 3.59472,5.4234 3.59472,8.67847 v 49.09137 c 0,6.77829 -5.4949,12.27319 -12.27319,12.27319 h -90.19376 c -6.77829,0 -12.27319,-5.4949 -12.27319,-12.27319 z" />
  <path
     style="fill-rule:evenodd;stroke:#595959;stroke-width:1;stroke-linecap:butt;stroke-linejoin:round"
     inkscape:connector-curvature="0"
     id="path4259"
     d="m 325.36615,409.3231 v 0 c 0,-6.77832 5.4949,-12.27322 12.27319,-12.27322 h 90.19376 c 3.25503,0 6.3768,1.29306 8.67847,3.59475 2.30166,2.30167 3.59472,5.4234 3.59472,8.67847 v 49.09137 c 0,6.77829 -5.4949,12.27319 -12.27319,12.27319 h -90.19376 c -6.77829,0 -12.27319,-5.4949 -12.27319,-12.27319 z" />
  <path
     style="fill:#000000;fill-rule:nonzero"
     inkscape:connector-curvature="0"
     id="path4261"
     d="m 339.4296,440.78876 v -13.35937 h 5.92187 q 1.78125,0 2.70313,0.35937 0.9375,0.35938 1.48437,1.28125 0.5625,0.90625 0.5625,2.01563 0,1.40625 -0.92187,2.39062 -0.92188,0.96875 -2.84375,1.23438 0.70312,0.34375 1.07812,0.67187 0.76563,0.70313 1.45313,1.76563 l 2.32812,3.64062 h -2.21875 l -1.76562,-2.78125 q -0.78125,-1.20312 -1.28125,-1.82812 -0.5,-0.64063 -0.90625,-0.89063 -0.39063,-0.26562 -0.79688,-0.35937 -0.29687,-0.0781 -0.98437,-0.0781 h -2.04688 v 5.9375 z m 1.76562,-7.45312 h 3.79688 q 1.21875,0 1.89062,-0.25 0.6875,-0.26563 1.04688,-0.8125 0.35937,-0.54688 0.35937,-1.1875 0,-0.95313 -0.6875,-1.5625 -0.6875,-0.60938 -2.1875,-0.60938 h -4.21875 z m 18.09794,4.34375 1.6875,0.20312 q -0.40625,1.48438 -1.48438,2.3125 -1.07812,0.8125 -2.76562,0.8125 -2.125,0 -3.375,-1.29687 -1.23438,-1.3125 -1.23438,-3.67188 0,-2.45312 1.25,-3.79687 1.26563,-1.34375 3.26563,-1.34375 1.9375,0 3.15625,1.32812 1.23437,1.3125 1.23437,3.70313 0,0.15625 0,0.4375 h -7.21875 q 0.0937,1.59375 0.90625,2.45312 0.8125,0.84375 2.01563,0.84375 0.90625,0 1.54687,-0.46875 0.64063,-0.48437 1.01563,-1.51562 z m -5.39063,-2.65625 h 5.40625 q -0.10937,-1.21875 -0.625,-1.82813 -0.78125,-0.95312 -2.03125,-0.95312 -1.125,0 -1.90625,0.76562 -0.76562,0.75 -0.84375,2.01563 z m 8.82886,6.5625 1.59375,0.23437 q 0.10937,0.75 0.5625,1.07813 0.60937,0.45312 1.67187,0.45312 1.14063,0 1.75,-0.45312 0.625,-0.45313 0.84375,-1.26563 0.125,-0.5 0.10938,-2.10937 -1.0625,1.26562 -2.67188,1.26562 -2,0 -3.09375,-1.4375 -1.09375,-1.4375 -1.09375,-3.45312 0,-1.39063 0.5,-2.5625 0.51563,-1.17188 1.45313,-1.79688 0.95312,-0.64062 2.25,-0.64062 1.70312,0 2.8125,1.375 v -1.15625 h 1.51562 v 8.35937 q 0,2.26563 -0.46875,3.20313 -0.45312,0.9375 -1.45312,1.48437 -0.98438,0.54688 -2.45313,0.54688 -1.71875,0 -2.79687,-0.78125 -1.0625,-0.76563 -1.03125,-2.34375 z m 1.35937,-5.8125 q 0,1.90625 0.75,2.78125 0.76563,0.875 1.90625,0.875 1.125,0 1.89063,-0.85938 0.76562,-0.875 0.76562,-2.73437 0,-1.78125 -0.79687,-2.67188 -0.78125,-0.90625 -1.89063,-0.90625 -1.09375,0 -1.85937,0.89063 -0.76563,0.875 -0.76563,2.625 z m 9.32883,-6.45313 v -1.89062 h 1.64062 v 1.89062 z m 0,11.46875 v -9.67187 h 1.64062 v 9.67187 z m 3.48859,-2.89062 1.625,-0.25 q 0.125,0.96875 0.75,1.5 0.625,0.51562 1.75,0.51562 1.125,0 1.67187,-0.45312 0.54688,-0.46875 0.54688,-1.09375 0,-0.54688 -0.48438,-0.875 -0.32812,-0.21875 -1.67187,-0.54688 -1.8125,-0.46875 -2.51563,-0.79687 -0.6875,-0.32813 -1.04687,-0.90625 -0.35938,-0.59375 -0.35938,-1.3125 0,-0.64063 0.29688,-1.1875 0.29687,-0.5625 0.8125,-0.92188 0.375,-0.28125 1.03125,-0.46875 0.67187,-0.20312 1.42187,-0.20312 1.14063,0 2,0.32812 0.85938,0.32813 1.26563,0.89063 0.42187,0.5625 0.57812,1.5 l -1.60937,0.21875 q -0.10938,-0.75 -0.64063,-1.17188 -0.51562,-0.42187 -1.46875,-0.42187 -1.14062,0 -1.625,0.375 -0.46875,0.375 -0.46875,0.875 0,0.3125 0.1875,0.57812 0.20313,0.26563 0.64063,0.4375 0.23437,0.0937 1.4375,0.42188 1.75,0.45312 2.4375,0.75 0.6875,0.29687 1.07812,0.85937 0.39063,0.5625 0.39063,1.40625 0,0.82813 -0.48438,1.54688 -0.46875,0.71875 -1.375,1.125 -0.90625,0.39062 -2.04687,0.39062 -1.875,0 -2.875,-0.78125 -0.98438,-0.78125 -1.25,-2.32812 z m 13.5625,1.42187 0.23437,1.45313 q -0.6875,0.14062 -1.23437,0.14062 -0.89063,0 -1.39063,-0.28125 -0.48437,-0.28125 -0.6875,-0.73437 -0.20312,-0.46875 -0.20312,-1.9375 v -5.57813 h -1.20313 v -1.26562 h 1.20313 v -2.39063 l 1.625,-0.98437 v 3.375 h 1.65625 v 1.26562 h -1.65625 v 5.67188 q 0,0.6875 0.0781,0.89062 0.0937,0.20313 0.28125,0.32813 0.20313,0.10937 0.57813,0.10937 0.26562,0 0.71875,-0.0625 z m 1.58953,1.46875 v -9.67187 h 1.46875 v 1.46875 q 0.5625,-1.03125 1.03125,-1.35938 0.48438,-0.32812 1.0625,-0.32812 0.82813,0 1.6875,0.53125 l -0.5625,1.51562 q -0.60937,-0.35937 -1.20312,-0.35937 -0.54688,0 -0.96875,0.32812 -0.42188,0.32813 -0.60938,0.89063 -0.28125,0.875 -0.28125,1.92187 v 5.0625 z m 12.54081,-1.1875 q -0.92188,0.76563 -1.76563,1.09375 -0.82812,0.3125 -1.79687,0.3125 -1.59375,0 -2.45313,-0.78125 -0.85937,-0.78125 -0.85937,-1.98437 0,-0.71875 0.32812,-1.29688 0.32813,-0.59375 0.84375,-0.9375 0.53125,-0.35937 1.1875,-0.54687 0.46875,-0.125 1.45313,-0.25 1.98437,-0.23438 2.92187,-0.5625 0.0156,-0.34375 0.0156,-0.42188 0,-1 -0.46875,-1.42187 -0.625,-0.54688 -1.875,-0.54688 -1.15625,0 -1.70313,0.40625 -0.54687,0.40625 -0.8125,1.42188 l -1.60937,-0.21875 q 0.21875,-1.01563 0.71875,-1.64063 0.5,-0.64062 1.45312,-0.98437 0.95313,-0.34375 2.1875,-0.34375 1.25,0 2.01563,0.29687 0.78125,0.28125 1.14062,0.73438 0.375,0.4375 0.51563,1.10937 0.0781,0.42188 0.0781,1.51563 v 2.1875 q 0,2.28125 0.10938,2.89062 0.10937,0.59375 0.40625,1.15625 h -1.70313 q -0.26562,-0.51562 -0.32812,-1.1875 z m -0.14063,-3.67187 q -0.89062,0.375 -2.67187,0.625 -1.01563,0.14062 -1.4375,0.32812 -0.42188,0.1875 -0.65625,0.53125 -0.21875,0.34375 -0.21875,0.78125 0,0.65625 0.5,1.09375 0.5,0.4375 1.45312,0.4375 0.9375,0 1.67188,-0.40625 0.75,-0.42187 1.09375,-1.14062 0.26562,-0.5625 0.26562,-1.64063 z m 4.18823,4.85937 v -9.67187 h 1.46875 v 1.46875 q 0.5625,-1.03125 1.03125,-1.35938 0.48438,-0.32812 1.0625,-0.32812 0.82813,0 1.6875,0.53125 l -0.5625,1.51562 q -0.60937,-0.35937 -1.20312,-0.35937 -0.54688,0 -0.96875,0.32812 -0.42188,0.32813 -0.60938,0.89063 -0.28125,0.875 -0.28125,1.92187 v 5.0625 z" />
  <path
     style="fill:#000000;fill-opacity:0;fill-rule:evenodd"
     inkscape:connector-curvature="0"
     id="path4265"
     d="m 608.80316,251.26596 v 0 c 0,9.42267 -21.46741,17.06125 -47.94885,17.06125 -26.48139,0 -47.94879,-7.63858 -47.94879,-17.06125" />
  <path
     style="fill:#000000;fill-opacity:0;fill-rule:evenodd"
     inkscape:connector-curvature="0"
     id="path4267"
     d="m 512.9055,251.26596 v 0 c 0,-9.42265 21.46741,-17.06123 47.94879,-17.06123 26.48144,0 47.94885,7.63858 47.94885,17.06123 v 68.24496 c 0,9.42267 -21.4674,17.06125 -47.94885,17.06125 -26.48138,0 -47.94879,-7.63858 -47.94879,-17.06125 z" />
  <path
     style="fill:#000000;fill-opacity:0;fill-rule:evenodd"
     inkscape:connector-curvature="0"
     id="path4275"
     d="m 417.84778,208.97638 95.05511,76.40945" />
  <path
     style="fill-rule:evenodd;stroke:#595959;stroke-width:4.0636735;stroke-linecap:butt;stroke-linejoin:round"
     inkscape:connector-curvature="0"
     id="path4277"
     d="m 417.76916,208.91823 137.16975,177.695" />
  <path
     style="fill:#595959;fill-rule:evenodd;stroke:#595959;stroke-width:2;stroke-linecap:butt"
     inkscape:connector-curvature="0"
     id="path4279"
     d="m 552.33011,388.70837 7.98403,5.43554 -2.62222,-9.29591 z" />
  <path
     style="fill:#efefef;fill-rule:evenodd"
     inkscape:connector-curvature="0"
     id="path4281"
     d="m 503.48425,409.3231 v 0 c 0,-6.77832 5.4949,-12.27322 12.27319,-12.27322 h 90.19373 c 3.25506,0 6.37683,1.29306 8.67847,3.59475 2.30169,2.30167 3.59478,5.4234 3.59478,8.67847 v 49.09137 c 0,6.77829 -5.49493,12.27319 -12.27325,12.27319 h -90.19373 c -6.77829,0 -12.27319,-5.4949 -12.27319,-12.27319 z" />
  <path
     style="fill-rule:evenodd;stroke:#595959;stroke-width:1;stroke-linecap:butt;stroke-linejoin:round"
     inkscape:connector-curvature="0"
     id="path4283"
     d="m 503.48425,409.3231 v 0 c 0,-6.77832 5.4949,-12.27322 12.27319,-12.27322 h 90.19373 c 3.25506,0 6.37683,1.29306 8.67847,3.59475 2.30169,2.30167 3.59478,5.4234 3.59478,8.67847 v 49.09137 c 0,6.77829 -5.49493,12.27319 -12.27325,12.27319 h -90.19373 c -6.77829,0 -12.27319,-5.4949 -12.27319,-12.27319 z" />
  <path
     style="fill:#000000;fill-rule:nonzero"
     inkscape:connector-curvature="0"
     id="path4285"
     d="m 517.4696,440.78876 v -13.35937 h 2.65625 l 3.15625,9.45312 q 0.4375,1.32813 0.64063,1.98438 0.23437,-0.73438 0.70312,-2.14063 l 3.20313,-9.29687 h 2.375 v 13.35937 h -1.70313 v -11.17187 l -3.875,11.17187 h -1.59375 l -3.85937,-11.375 v 11.375 z m 21.69702,-1.1875 q -0.92187,0.76563 -1.76562,1.09375 -0.82813,0.3125 -1.79688,0.3125 -1.59375,0 -2.45312,-0.78125 -0.85938,-0.78125 -0.85938,-1.98437 0,-0.71875 0.32813,-1.29688 0.32812,-0.59375 0.84375,-0.9375 0.53125,-0.35937 1.1875,-0.54687 0.46875,-0.125 1.45312,-0.25 1.98438,-0.23438 2.92188,-0.5625 0.0156,-0.34375 0.0156,-0.42188 0,-1 -0.46875,-1.42187 -0.625,-0.54688 -1.875,-0.54688 -1.15625,0 -1.70312,0.40625 -0.54688,0.40625 -0.8125,1.42188 l -1.60938,-0.21875 q 0.21875,-1.01563 0.71875,-1.64063 0.5,-0.64062 1.45313,-0.98437 0.95312,-0.34375 2.1875,-0.34375 1.25,0 2.01562,0.29687 0.78125,0.28125 1.14063,0.73438 0.375,0.4375 0.51562,1.10937 0.0781,0.42188 0.0781,1.51563 v 2.1875 q 0,2.28125 0.10937,2.89062 0.10938,0.59375 0.40625,1.15625 h -1.70312 q -0.26563,-0.51562 -0.32813,-1.1875 z m -0.14062,-3.67187 q -0.89063,0.375 -2.67188,0.625 -1.01562,0.14062 -1.4375,0.32812 -0.42187,0.1875 -0.65625,0.53125 -0.21875,0.34375 -0.21875,0.78125 0,0.65625 0.5,1.09375 0.5,0.4375 1.45313,0.4375 0.9375,0 1.67187,-0.40625 0.75,-0.42187 1.09375,-1.14062 0.26563,-0.5625 0.26563,-1.64063 z m 4.20385,4.85937 v -9.67187 h 1.46875 v 1.375 q 1.0625,-1.59375 3.07813,-1.59375 0.875,0 1.60937,0.3125 0.73438,0.3125 1.09375,0.82812 0.375,0.5 0.51563,1.20313 0.0937,0.45312 0.0937,1.59375 v 5.95312 h -1.64063 v -5.89062 q 0,-1 -0.20312,-1.48438 -0.1875,-0.5 -0.67188,-0.79687 -0.48437,-0.29688 -1.14062,-0.29688 -1.04688,0 -1.8125,0.67188 -0.75,0.65625 -0.75,2.51562 v 5.28125 z m 16.68824,-1.1875 q -0.92188,0.76563 -1.76563,1.09375 -0.82812,0.3125 -1.79687,0.3125 -1.59375,0 -2.45313,-0.78125 -0.85937,-0.78125 -0.85937,-1.98437 0,-0.71875 0.32812,-1.29688 0.32813,-0.59375 0.84375,-0.9375 0.53125,-0.35937 1.1875,-0.54687 0.46875,-0.125 1.45313,-0.25 1.98437,-0.23438 2.92187,-0.5625 0.0156,-0.34375 0.0156,-0.42188 0,-1 -0.46875,-1.42187 -0.625,-0.54688 -1.875,-0.54688 -1.15625,0 -1.70313,0.40625 -0.54687,0.40625 -0.8125,1.42188 l -1.60937,-0.21875 q 0.21875,-1.01563 0.71875,-1.64063 0.5,-0.64062 1.45312,-0.98437 0.95313,-0.34375 2.1875,-0.34375 1.25,0 2.01563,0.29687 0.78125,0.28125 1.14062,0.73438 0.375,0.4375 0.51563,1.10937 0.0781,0.42188 0.0781,1.51563 v 2.1875 q 0,2.28125 0.10938,2.89062 0.10937,0.59375 0.40625,1.15625 h -1.70313 q -0.26562,-0.51562 -0.32812,-1.1875 z m -0.14063,-3.67187 q -0.89062,0.375 -2.67187,0.625 -1.01563,0.14062 -1.4375,0.32812 -0.42188,0.1875 -0.65625,0.53125 -0.21875,0.34375 -0.21875,0.78125 0,0.65625 0.5,1.09375 0.5,0.4375 1.45312,0.4375 0.9375,0 1.67188,-0.40625 0.75,-0.42187 1.09375,-1.14062 0.26562,-0.5625 0.26562,-1.64063 z m 3.8913,5.65625 1.59375,0.23437 q 0.10937,0.75 0.5625,1.07813 0.60937,0.45312 1.67187,0.45312 1.14063,0 1.75,-0.45312 0.625,-0.45313 0.84375,-1.26563 0.125,-0.5 0.10938,-2.10937 -1.0625,1.26562 -2.67188,1.26562 -2,0 -3.09375,-1.4375 -1.09375,-1.4375 -1.09375,-3.45312 0,-1.39063 0.5,-2.5625 0.51563,-1.17188 1.45313,-1.79688 0.95312,-0.64062 2.25,-0.64062 1.70312,0 2.8125,1.375 v -1.15625 h 1.51562 v 8.35937 q 0,2.26563 -0.46875,3.20313 -0.45312,0.9375 -1.45312,1.48437 -0.98438,0.54688 -2.45313,0.54688 -1.71875,0 -2.79687,-0.78125 -1.0625,-0.76563 -1.03125,-2.34375 z m 1.35937,-5.8125 q 0,1.90625 0.75,2.78125 0.76563,0.875 1.90625,0.875 1.125,0 1.89063,-0.85938 0.76562,-0.875 0.76562,-2.73437 0,-1.78125 -0.79687,-2.67188 -0.78125,-0.90625 -1.89063,-0.90625 -1.09375,0 -1.85937,0.89063 -0.76563,0.875 -0.76563,2.625 z m 15.95386,1.90625 1.6875,0.20312 q -0.40625,1.48438 -1.48438,2.3125 -1.07812,0.8125 -2.76562,0.8125 -2.125,0 -3.375,-1.29687 -1.23438,-1.3125 -1.23438,-3.67188 0,-2.45312 1.25,-3.79687 1.26563,-1.34375 3.26563,-1.34375 1.9375,0 3.15625,1.32812 1.23437,1.3125 1.23437,3.70313 0,0.15625 0,0.4375 h -7.21875 q 0.0937,1.59375 0.90625,2.45312 0.8125,0.84375 2.01563,0.84375 0.90625,0 1.54687,-0.46875 0.64063,-0.48437 1.01563,-1.51562 z m -5.39063,-2.65625 h 5.40625 q -0.10937,-1.21875 -0.625,-1.82813 -0.78125,-0.95312 -2.03125,-0.95312 -1.125,0 -1.90625,0.76562 -0.76562,0.75 -0.84375,2.01563 z m 9.12574,5.76562 v -9.67187 h 1.46875 v 1.46875 q 0.5625,-1.03125 1.03125,-1.35938 0.48437,-0.32812 1.0625,-0.32812 0.82812,0 1.6875,0.53125 l -0.5625,1.51562 q -0.60938,-0.35937 -1.20313,-0.35937 -0.54687,0 -0.96875,0.32812 -0.42187,0.32813 -0.60937,0.89063 -0.28125,0.875 -0.28125,1.92187 v 5.0625 z" />
  <path
     style="fill:#000000;fill-opacity:0;fill-rule:evenodd"
     inkscape:connector-curvature="0"
     id="path4287"
     d="m 560.8543,336.57217 v 60.47244" />
  <path
     style="fill:#eeeeee;fill-rule:evenodd"
     inkscape:connector-curvature="0"
     id="path4295"
     d="m 34.824146,455.7693 v 0 c 0,-7.03345 5.701729,-12.73517 12.735165,-12.73517 h 88.671399 c 3.37758,0 6.61682,1.34174 9.00513,3.73004 2.3883,2.38831 3.73004,5.62757 3.73004,9.00513 v 50.93912 c 0,7.03341 -5.70172,12.73514 -12.73517,12.73514 H 47.559312 c -7.033436,0 -12.735165,-5.70173 -12.735165,-12.73514 z" />
  <path
     style="fill-rule:evenodd;stroke:#595959;stroke-width:1;stroke-linecap:butt;stroke-linejoin:round"
     inkscape:connector-curvature="0"
     id="path4297"
     d="m 34.824146,455.7693 v 0 c 0,-7.03345 5.701729,-12.73517 12.735165,-12.73517 h 88.671399 c 3.37758,0 6.61682,1.34174 9.00513,3.73004 2.3883,2.38831 3.73004,5.62757 3.73004,9.00513 v 50.93912 c 0,7.03341 -5.70172,12.73514 -12.73517,12.73514 H 47.559312 c -7.033436,0 -12.735165,-5.70173 -12.735165,-12.73514 z" />
  <path
     style="fill:#000000;fill-rule:nonzero"
     inkscape:connector-curvature="0"
     id="path4299"
     d="m 51.319775,477.15884 -3.53125,-13.35938 h 1.8125 l 2.03125,8.76563 q 0.328125,1.375 0.5625,2.71875 0.5,-2.14063 0.59375,-2.46875 l 2.546875,-9.01563 h 2.125 l 1.921875,6.76563 q 0.71875,2.51562 1.03125,4.71875 0.265625,-1.26563 0.671875,-2.89063 l 2.09375,-8.59375 h 1.781246 l -3.671871,13.35938 H 59.5854 l -2.8125,-10.17188 q -0.359375,-1.28125 -0.421875,-1.5625 -0.203125,0.90625 -0.390625,1.5625 l -2.828125,10.17188 z m 21.702404,-3.10938 1.6875,0.20313 q -0.40625,1.48437 -1.484375,2.3125 -1.078125,0.8125 -2.765625,0.8125 -2.125,0 -3.375,-1.29688 -1.234375,-1.3125 -1.234375,-3.67187 0,-2.45313 1.25,-3.79688 1.265625,-1.34375 3.265625,-1.34375 1.9375,0 3.15625,1.32813 1.234375,1.3125 1.234375,3.70312 0,0.15625 0,0.4375 h -7.21875 q 0.09375,1.59375 0.90625,2.45313 0.8125,0.84375 2.015625,0.84375 0.90625,0 1.546875,-0.46875 0.640625,-0.48438 1.015625,-1.51563 z m -5.390625,-2.65625 h 5.40625 q -0.109375,-1.21875 -0.625,-1.82812 -0.78125,-0.95313 -2.03125,-0.95313 -1.125,0 -1.90625,0.76563 -0.765625,0.75 -0.84375,2.01562 z m 10.641342,5.76563 h -1.515625 v -13.35938 h 1.640625 v 4.76563 q 1.046875,-1.29688 2.65625,-1.29688 0.890625,0 1.6875,0.35938 0.796875,0.35937 1.3125,1.01562 0.515625,0.64063 0.796875,1.5625 0.296875,0.92188 0.296875,1.96875 0,2.48438 -1.234375,3.84375 -1.21875,1.35938 -2.953125,1.35938 -1.703125,0 -2.6875,-1.4375 z m -0.01563,-4.90625 q 0,1.73437 0.484375,2.51562 0.765625,1.26563 2.09375,1.26563 1.078125,0 1.859375,-0.9375 0.78125,-0.9375 0.78125,-2.78125 0,-1.89063 -0.75,-2.79688 -0.75,-0.90625 -1.828125,-0.90625 -1.0625,0 -1.859375,0.9375 -0.78125,0.9375 -0.78125,2.70313 z" />
  <path
     style="fill:#000000;fill-rule:nonzero"
     inkscape:connector-curvature="0"
     id="path4301"
     d="m 49.0854,499.15884 v -13.35938 h 9.015625 v 1.57813 h -7.25 v 4.14062 h 6.265625 v 1.57813 h -6.265625 v 6.0625 z m 11.083481,0 v -9.67188 h 1.46875 v 1.46875 q 0.5625,-1.03125 1.03125,-1.35937 0.484375,-0.32813 1.0625,-0.32813 0.828121,0 1.687496,0.53125 l -0.5625,1.51563 q -0.609375,-0.35938 -1.203121,-0.35938 -0.546875,0 -0.96875,0.32813 -0.421875,0.32812 -0.609375,0.89062 -0.28125,0.875 -0.28125,1.92188 v 5.0625 z m 5.618923,-4.84375 q 0,-2.6875 1.484375,-3.96875 1.25,-1.07813 3.046875,-1.07813 2,0 3.265625,1.3125 1.265625,1.29688 1.265625,3.60938 0,1.85937 -0.5625,2.9375 -0.5625,1.0625 -1.640625,1.65625 -1.0625,0.59375 -2.328125,0.59375 -2.03125,0 -3.28125,-1.29688 -1.25,-1.3125 -1.25,-3.76562 z m 1.6875,0 q 0,1.85937 0.796875,2.79687 0.8125,0.92188 2.046875,0.92188 1.21875,0 2.03125,-0.92188 0.8125,-0.9375 0.8125,-2.84375 0,-1.79687 -0.8125,-2.71875 -0.8125,-0.92187 -2.03125,-0.92187 -1.234375,0 -2.046875,0.92187 -0.796875,0.90625 -0.796875,2.76563 z m 9.297592,4.84375 v -9.67188 h 1.46875 v 1.375 q 1.0625,-1.59375 3.078125,-1.59375 0.875,0 1.609375,0.3125 0.734375,0.3125 1.09375,0.82813 0.375,0.5 0.515625,1.20312 0.09375,0.45313 0.09375,1.59375 v 5.95313 h -1.640625 v -5.89063 q 0,-1 -0.203125,-1.48437 -0.1875,-0.5 -0.671875,-0.79688 -0.484375,-0.29687 -1.140625,-0.29687 -1.046875,0 -1.8125,0.67187 -0.75,0.65625 -0.75,2.51563 v 5.28125 z m 13.953842,-1.46875 0.234375,1.45312 q -0.6875,0.14063 -1.234375,0.14063 -0.890625,0 -1.390625,-0.28125 -0.484375,-0.28125 -0.6875,-0.73438 -0.203125,-0.46875 -0.203125,-1.9375 v -5.57812 h -1.203125 v -1.26563 h 1.203125 v -2.39062 l 1.625,-0.98438 v 3.375 h 1.65625 v 1.26563 h -1.65625 v 5.67187 q 0,0.6875 0.07813,0.89063 0.09375,0.20312 0.28125,0.32812 0.203125,0.10938 0.578125,0.10938 0.265625,0 0.71875,-0.0625 z m 8.230179,-1.64063 1.687503,0.20313 q -0.40625,1.48437 -1.484378,2.3125 -1.078125,0.8125 -2.765625,0.8125 -2.125,0 -3.375,-1.29688 -1.234375,-1.3125 -1.234375,-3.67187 0,-2.45313 1.25,-3.79688 1.265625,-1.34375 3.265625,-1.34375 1.9375,0 3.15625,1.32813 1.234373,1.3125 1.234373,3.70312 0,0.15625 0,0.4375 h -7.218748 q 0.09375,1.59375 0.90625,2.45313 0.8125,0.84375 2.015625,0.84375 0.90625,0 1.546875,-0.46875 0.640625,-0.48438 1.015625,-1.51563 z m -5.390625,-2.65625 h 5.40625 q -0.109375,-1.21875 -0.625,-1.82812 -0.78125,-0.95313 -2.03125,-0.95313 -1.125,0 -1.90625,0.76563 -0.765625,0.75 -0.84375,2.01562 z m 9.141338,5.76563 v -9.67188 h 1.46875 v 1.375 q 1.0625,-1.59375 3.07813,-1.59375 0.875,0 1.60937,0.3125 0.73438,0.3125 1.09375,0.82813 0.375,0.5 0.51563,1.20312 0.0937,0.45313 0.0937,1.59375 v 5.95313 h -1.64063 v -5.89063 q 0,-1 -0.20312,-1.48437 -0.1875,-0.5 -0.67188,-0.79688 -0.48437,-0.29687 -1.14062,-0.29687 -1.04688,0 -1.8125,0.67187 -0.75,0.65625 -0.75,2.51563 v 5.28125 z m 16.64135,0 v -1.21875 q -0.90625,1.4375 -2.70313,1.4375 -1.15625,0 -2.125,-0.64063 -0.96875,-0.64062 -1.5,-1.78125 -0.53125,-1.14062 -0.53125,-2.625 0,-1.45312 0.48438,-2.625 0.48437,-1.1875 1.4375,-1.8125 0.96875,-0.625 2.17187,-0.625 0.875,0 1.54688,0.375 0.6875,0.35938 1.10937,0.95313 v -4.79688 h 1.64063 v 13.35938 z m -5.17188,-4.82813 q 0,1.85938 0.78125,2.78125 0.78125,0.92188 1.84375,0.92188 1.07813,0 1.82813,-0.875 0.75,-0.89063 0.75,-2.6875 0,-1.98438 -0.76563,-2.90625 -0.76562,-0.9375 -1.89062,-0.9375 -1.07813,0 -1.8125,0.89062 -0.73438,0.89063 -0.73438,2.8125 z" />
  <path
     style="fill:#000000;fill-opacity:0;fill-rule:evenodd"
     inkscape:connector-curvature="0"
     id="path4303"
     d="M 148.96588,481.23883 325.37533,433.86877" />
  <path
     style="fill-rule:evenodd;stroke:#595959;stroke-width:2;stroke-linecap:butt;stroke-linejoin:round"
     inkscape:connector-curvature="0"
     id="path4305"
     d="m 160.55533,478.1268 153.23056,-41.146" />
  <path
     style="fill:#595959;fill-rule:evenodd;stroke:#595959;stroke-width:2;stroke-linecap:butt"
     inkscape:connector-curvature="0"
     id="path4307"
     d="m 159.69861,474.93637 -7.90895,5.54422 9.62237,0.83667 z" />
  <path
     style="fill:#595959;fill-rule:evenodd;stroke:#595959;stroke-width:2;stroke-linecap:butt"
     inkscape:connector-curvature="0"
     id="path4309"
     d="m 314.64258,440.17123 7.90897,-5.54422 -9.62238,-0.83664 z" />
  <path
     style="fill:#000000;fill-opacity:0;fill-rule:evenodd"
     inkscape:connector-curvature="0"
     id="path4311"
     d="m 866.3609,123.79527 v 0" />
  <path
     style="fill-rule:evenodd;stroke:#595959;stroke-width:1;stroke-linecap:butt;stroke-linejoin:round"
     inkscape:connector-curvature="0"
     id="path4313"
     d="m 866.3609,123.79527 v 0" />
  <path
     style="fill:#000000;fill-opacity:0;fill-rule:evenodd"
     inkscape:connector-curvature="0"
     id="path4315"
     d="m 889.7598,155.07874 v 0" />
  <path
     style="fill-rule:evenodd;stroke:#595959;stroke-width:1;stroke-linecap:butt;stroke-linejoin:round"
     inkscape:connector-curvature="0"
     id="path4317"
     d="m 889.7598,155.07874 v 0" />
  <path
     style="fill:#9fc5e8;fill-rule:evenodd"
     inkscape:connector-curvature="0"
     id="path4319"
     d="m 34.824146,120.77953 v 0 c 0,-5.53444 4.486553,-10.021 10.021,-10.021 h 78.698164 c 2.65773,0 5.20662,1.05578 7.08592,2.93508 1.8793,1.8793 2.93507,4.42819 2.93507,7.08592 v 40.08398 c 0,5.53445 -4.48655,10.02101 -10.02099,10.02101 H 44.845146 c -5.534447,0 -10.021,-4.48656 -10.021,-10.02101 z" />
  <path
     style="fill-rule:evenodd;stroke:#595959;stroke-width:1;stroke-linecap:butt;stroke-linejoin:round"
     inkscape:connector-curvature="0"
     id="path4321"
     d="m 34.824146,120.77953 v 0 c 0,-5.53444 4.486553,-10.021 10.021,-10.021 h 78.698164 c 2.65773,0 5.20662,1.05578 7.08592,2.93508 1.8793,1.8793 2.93507,4.42819 2.93507,7.08592 v 40.08398 c 0,5.53445 -4.48655,10.02101 -10.02099,10.02101 H 44.845146 c -5.534447,0 -10.021,-4.48656 -10.021,-10.02101 z" />
  <path
     style="fill:#000000;fill-rule:nonzero"
     inkscape:connector-curvature="0"
     id="path4323"
     d="m 56.962322,134.38214 h 1.765625 v 7.71875 q 0,2.01562 -0.453125,3.20312 -0.453125,1.1875 -1.640625,1.9375 -1.1875,0.73438 -3.125,0.73438 -1.875,0 -3.078125,-0.64063 -1.1875,-0.65625 -1.703125,-1.875 -0.5,-1.23437 -0.5,-3.35937 v -7.71875 h 1.765625 v 7.71875 q 0,1.73437 0.3125,2.5625 0.328125,0.8125 1.109375,1.26562 0.796875,0.45313 1.9375,0.45313 1.953125,0 2.78125,-0.89063 0.828125,-0.89062 0.828125,-3.39062 z m 3.847946,10.46875 1.625,-0.25 q 0.125,0.96875 0.75,1.5 0.625,0.51562 1.749996,0.51562 1.125,0 1.671875,-0.45312 0.546875,-0.46875 0.546875,-1.09375 0,-0.54688 -0.484375,-0.875 -0.328125,-0.21875 -1.671875,-0.54688 -1.812496,-0.46875 -2.515621,-0.79687 -0.6875,-0.32813 -1.046875,-0.90625 -0.359375,-0.59375 -0.359375,-1.3125 0,-0.64063 0.296875,-1.1875 0.296875,-0.5625 0.8125,-0.92188 0.375,-0.28125 1.03125,-0.46875 0.671875,-0.20312 1.421871,-0.20312 1.140625,0 2,0.32812 0.859375,0.32813 1.265625,0.89063 0.421875,0.5625 0.578125,1.5 l -1.609375,0.21875 q -0.109375,-0.75 -0.640625,-1.17188 -0.515625,-0.42187 -1.46875,-0.42187 -1.140621,0 -1.624996,0.375 -0.46875,0.375 -0.46875,0.875 0,0.3125 0.1875,0.57812 0.203125,0.26563 0.640625,0.4375 0.234375,0.0937 1.437496,0.42188 1.75,0.45312 2.4375,0.75 0.6875,0.29687 1.078125,0.85937 0.390625,0.5625 0.390625,1.40625 0,0.82813 -0.484375,1.54688 -0.46875,0.71875 -1.375,1.125 -0.90625,0.39062 -2.046875,0.39062 -1.874996,0 -2.874996,-0.78125 -0.984375,-0.78125 -1.25,-2.32812 z m 16.609371,-0.21875 1.6875,0.20312 q -0.40625,1.48438 -1.484375,2.3125 -1.078125,0.8125 -2.765625,0.8125 -2.125,0 -3.375,-1.29687 -1.234375,-1.3125 -1.234375,-3.67188 0,-2.45312 1.25,-3.79687 1.265625,-1.34375 3.265625,-1.34375 1.9375,0 3.15625,1.32812 1.234375,1.3125 1.234375,3.70313 0,0.15625 0,0.4375 h -7.21875 q 0.09375,1.59375 0.90625,2.45312 0.8125,0.84375 2.015625,0.84375 0.90625,0 1.546875,-0.46875 0.640625,-0.48437 1.015625,-1.51562 z m -5.390625,-2.65625 h 5.40625 q -0.109375,-1.21875 -0.625,-1.82813 -0.78125,-0.95312 -2.03125,-0.95312 -1.125,0 -1.90625,0.76562 -0.765625,0.75 -0.84375,2.01563 z m 9.125717,5.76562 v -9.67187 h 1.46875 v 1.46875 q 0.5625,-1.03125 1.03125,-1.35938 0.484375,-0.32812 1.0625,-0.32812 0.828125,0 1.6875,0.53125 l -0.5625,1.51562 q -0.609375,-0.35937 -1.203125,-0.35937 -0.546875,0 -0.96875,0.32812 -0.421875,0.32813 -0.609375,0.89063 -0.28125,0.875 -0.28125,1.92187 v 5.0625 z" />
  <path
     style="fill:#000000;fill-opacity:0;fill-rule:evenodd"
     inkscape:connector-curvature="0"
     id="path4325"
     d="M 151.26509,251.59055 325.37533,156.06299" />
  <path
     style="fill-rule:evenodd;stroke:#b6d7a8;stroke-width:4;stroke-linecap:butt;stroke-linejoin:round"
     inkscape:connector-curvature="0"
     id="path4327"
     d="M 151.26509,251.59055 325.37533,156.06299" />
  <path
     style="fill:#000000;fill-opacity:0;fill-rule:evenodd"
     inkscape:connector-curvature="0"
     id="path4329"
     d="M 169.61154,265.91602 325.39108,156.05774" />
  <path
     style="fill-rule:evenodd;stroke:#b6d7a8;stroke-width:4;stroke-linecap:butt;stroke-linejoin:round"
     inkscape:connector-curvature="0"
     id="path4331"
     d="M 169.61154,265.91602 325.39108,156.05774" />
  <path
     style="fill:#9fc5e8;fill-rule:evenodd"
     inkscape:connector-curvature="0"
     id="path4333"
     d="m 52.51706,136.021 v 0 c 0,-5.53444 4.486553,-10.021 10.021,-10.021 h 78.69817 c 2.65773,0 5.20662,1.05578 7.0859,2.93509 1.87931,1.87929 2.93509,4.42818 2.93509,7.08591 v 40.08398 c 0,5.53446 -4.48656,10.02101 -10.02099,10.02101 H 62.53806 c -5.534447,0 -10.021,-4.48655 -10.021,-10.02101 z" />
  <path
     style="fill-rule:evenodd;stroke:#595959;stroke-width:1;stroke-linecap:butt;stroke-linejoin:round"
     inkscape:connector-curvature="0"
     id="path4335"
     d="m 52.51706,136.021 v 0 c 0,-5.53444 4.486553,-10.021 10.021,-10.021 h 78.69817 c 2.65773,0 5.20662,1.05578 7.0859,2.93509 1.87931,1.87929 2.93509,4.42818 2.93509,7.08591 v 40.08398 c 0,5.53446 -4.48656,10.02101 -10.02099,10.02101 H 62.53806 c -5.534447,0 -10.021,-4.48655 -10.021,-10.02101 z" />
  <path
     style="fill:#000000;fill-rule:nonzero"
     inkscape:connector-curvature="0"
     id="path4337"
     d="m 74.655235,149.62361 h 1.765625 v 7.71875 q 0,2.01563 -0.453125,3.20313 -0.453125,1.1875 -1.640625,1.9375 -1.1875,0.73437 -3.125,0.73437 -1.875,0 -3.078125,-0.64062 -1.1875,-0.65625 -1.703125,-1.875 -0.5,-1.23438 -0.5,-3.35938 v -7.71875 h 1.765625 v 7.71875 q 0,1.73438 0.3125,2.5625 0.328125,0.8125 1.109375,1.26563 0.796875,0.45312 1.9375,0.45312 1.953125,0 2.78125,-0.89062 0.828125,-0.89063 0.828125,-3.39063 z m 3.847946,10.46875 1.625,-0.25 q 0.125,0.96875 0.75,1.5 0.625,0.51563 1.75,0.51563 1.125,0 1.671875,-0.45313 0.546875,-0.46875 0.546875,-1.09375 0,-0.54687 -0.484375,-0.875 -0.328125,-0.21875 -1.671875,-0.54687 -1.8125,-0.46875 -2.515625,-0.79688 -0.6875,-0.32812 -1.046875,-0.90625 -0.359375,-0.59375 -0.359375,-1.3125 0,-0.64062 0.296875,-1.1875 0.296875,-0.5625 0.8125,-0.92187 0.375,-0.28125 1.03125,-0.46875 0.671875,-0.20313 1.421875,-0.20313 1.140625,0 2,0.32813 0.859375,0.32812 1.265625,0.89062 0.421875,0.5625 0.578125,1.5 l -1.609375,0.21875 q -0.109375,-0.75 -0.640625,-1.17187 -0.515625,-0.42188 -1.46875,-0.42188 -1.140625,0 -1.625,0.375 -0.46875,0.375 -0.46875,0.875 0,0.3125 0.1875,0.57813 0.203125,0.26562 0.640625,0.4375 0.234375,0.0937 1.4375,0.42187 1.75,0.45313 2.4375,0.75 0.6875,0.29688 1.078125,0.85938 0.390625,0.5625 0.390625,1.40625 0,0.82812 -0.484375,1.54687 -0.46875,0.71875 -1.375,1.125 -0.90625,0.39063 -2.046875,0.39063 -1.875,0 -2.875,-0.78125 -0.984375,-0.78125 -1.25,-2.32813 z m 16.609375,-0.21875 1.6875,0.20313 q -0.40625,1.48437 -1.484375,2.3125 -1.078125,0.8125 -2.765625,0.8125 -2.125,0 -3.375,-1.29688 -1.234375,-1.3125 -1.234375,-3.67187 0,-2.45313 1.25,-3.79688 1.265625,-1.34375 3.265625,-1.34375 1.9375,0 3.15625,1.32813 1.234375,1.3125 1.234375,3.70312 0,0.15625 0,0.4375 h -7.21875 q 0.09375,1.59375 0.90625,2.45313 0.8125,0.84375 2.015625,0.84375 0.90625,0 1.546875,-0.46875 0.640625,-0.48438 1.015625,-1.51563 z m -5.390625,-2.65625 h 5.40625 q -0.109375,-1.21875 -0.625,-1.82812 -0.78125,-0.95313 -2.03125,-0.95313 -1.125,0 -1.90625,0.76563 -0.765625,0.75 -0.84375,2.01562 z m 9.125717,5.76563 v -9.67188 h 1.468752 v 1.46875 q 0.5625,-1.03125 1.03125,-1.35937 0.48437,-0.32813 1.0625,-0.32813 0.82812,0 1.6875,0.53125 l -0.5625,1.51563 q -0.60938,-0.35938 -1.20313,-0.35938 -0.54687,0 -0.96875,0.32813 -0.42187,0.32812 -0.60937,0.89062 -0.28125,0.875 -0.28125,1.92188 v 5.0625 z" />
  <path
     style="fill:#000000;fill-opacity:0;fill-rule:evenodd"
     inkscape:connector-curvature="0"
     id="path4339"
     d="M 151.26509,156.06299 H 325.37533" />
  <path
     style="fill-rule:evenodd;stroke:#a4c2f4;stroke-width:4;stroke-linecap:butt;stroke-linejoin:round"
     inkscape:connector-curvature="0"
     id="path4341"
     d="M 151.26509,156.06299 H 325.37533" />
  <path
     style="fill:#b6d7a8;fill-rule:evenodd"
     inkscape:connector-curvature="0"
     id="path4343"
     d="m 52.51706,231.53806 v 0 c 0,-5.53444 4.486553,-10.021 10.021,-10.021 h 78.69817 c 2.65773,0 5.20662,1.05579 7.0859,2.93509 1.87931,1.87931 2.93509,4.42818 2.93509,7.08591 v 40.08398 c 0,5.53446 -4.48656,10.021 -10.02099,10.021 H 62.53806 c -5.534447,0 -10.021,-4.48654 -10.021,-10.021 z" />
  <path
     style="fill-rule:evenodd;stroke:#595959;stroke-width:1;stroke-linecap:butt;stroke-linejoin:round"
     inkscape:connector-curvature="0"
     id="path4345"
     d="m 52.51706,231.53806 v 0 c 0,-5.53444 4.486553,-10.021 10.021,-10.021 h 78.69817 c 2.65773,0 5.20662,1.05579 7.0859,2.93509 1.87931,1.87931 2.93509,4.42818 2.93509,7.08591 v 40.08398 c 0,5.53446 -4.48656,10.021 -10.02099,10.021 H 62.53806 c -5.534447,0 -10.021,-4.48654 -10.021,-10.021 z" />
  <path
     style="fill:#000000;fill-rule:nonzero"
     inkscape:connector-curvature="0"
     id="path4347"
     d="m 74.655235,245.14067 h 1.765625 v 7.71875 q 0,2.01562 -0.453125,3.20314 -0.453125,1.1875 -1.640625,1.9375 -1.1875,0.73438 -3.125,0.73438 -1.875,0 -3.078125,-0.64063 -1.1875,-0.65625 -1.703125,-1.875 -0.5,-1.23439 -0.5,-3.35939 v -7.71875 h 1.765625 v 7.71875 q 0,1.73437 0.3125,2.5625 0.328125,0.81252 1.109375,1.26564 0.796875,0.45313 1.9375,0.45313 1.953125,0 2.78125,-0.89063 0.828125,-0.89064 0.828125,-3.39064 z m 3.847946,10.46875 1.625,-0.25 q 0.125,0.96877 0.75,1.50002 0.625,0.51562 1.75,0.51562 1.125,0 1.671875,-0.45312 0.546875,-0.46875 0.546875,-1.09377 0,-0.54688 -0.484375,-0.875 -0.328125,-0.21875 -1.671875,-0.54688 -1.8125,-0.46875 -2.515625,-0.79687 -0.6875,-0.32813 -1.046875,-0.90625 -0.359375,-0.59375 -0.359375,-1.3125 0,-0.64063 0.296875,-1.1875 0.296875,-0.5625 0.8125,-0.92188 0.375,-0.28125 1.03125,-0.46875 0.671875,-0.20312 1.421875,-0.20312 1.140625,0 2,0.32812 0.859375,0.32813 1.265625,0.89063 0.421875,0.5625 0.578125,1.5 l -1.609375,0.21875 q -0.109375,-0.75 -0.640625,-1.17188 -0.515625,-0.42187 -1.46875,-0.42187 -1.140625,0 -1.625,0.375 -0.46875,0.375 -0.46875,0.875 0,0.3125 0.1875,0.57812 0.203125,0.26563 0.640625,0.4375 0.234375,0.0937 1.4375,0.42188 1.75,0.45312 2.4375,0.75 0.6875,0.29687 1.078125,0.85937 0.390625,0.5625 0.390625,1.40625 0,0.82815 -0.484375,1.5469 -0.46875,0.71875 -1.375,1.125 -0.90625,0.39062 -2.046875,0.39062 -1.875,0 -2.875,-0.78125 -0.984375,-0.78125 -1.25,-2.32814 z m 16.609375,-0.21875 1.6875,0.20312 q -0.40625,1.4844 -1.484375,2.31252 -1.078125,0.8125 -2.765625,0.8125 -2.125,0 -3.375,-1.29687 -1.234375,-1.3125 -1.234375,-3.6719 0,-2.45312 1.25,-3.79687 1.265625,-1.34375 3.265625,-1.34375 1.9375,0 3.15625,1.32812 1.234375,1.3125 1.234375,3.70313 0,0.15625 0,0.4375 h -7.21875 q 0.09375,1.59375 0.90625,2.45314 0.8125,0.84375 2.015625,0.84375 0.90625,0 1.546875,-0.46875 0.640625,-0.48437 1.015625,-1.51564 z m -5.390625,-2.65625 h 5.40625 q -0.109375,-1.21875 -0.625,-1.82813 -0.78125,-0.95312 -2.03125,-0.95312 -1.125,0 -1.90625,0.76562 -0.765625,0.75 -0.84375,2.01563 z m 9.125717,5.76564 v -9.67189 h 1.468752 v 1.46875 q 0.5625,-1.03125 1.03125,-1.35937 0.48437,-0.32813 1.0625,-0.32813 0.82812,0 1.6875,0.53125 l -0.5625,1.51563 q -0.60938,-0.35938 -1.20313,-0.35938 -0.54687,0 -0.96875,0.32813 -0.42187,0.32812 -0.60937,0.89062 -0.28125,0.875 -0.28125,1.92188 v 5.06251 z" />
  <path
     style="fill:#b6d7a8;fill-rule:evenodd"
     inkscape:connector-curvature="0"
     id="path4349"
     d="m 70.87139,245.87401 v 0 c 0,-5.53444 4.486549,-10.021 10.020996,-10.021 h 78.698164 c 2.65774,0 5.20662,1.05579 7.08592,2.93509 1.8793,1.87931 2.93507,4.42818 2.93507,7.08591 v 40.084 c 0,5.53445 -4.48654,10.021 -10.02099,10.021 H 80.892386 c -5.534447,0 -10.020996,-4.48655 -10.020996,-10.021 z" />
  <path
     style="fill-rule:evenodd;stroke:#595959;stroke-width:1;stroke-linecap:butt;stroke-linejoin:round"
     inkscape:connector-curvature="0"
     id="path4351"
     d="m 70.87139,245.87401 v 0 c 0,-5.53444 4.486549,-10.021 10.020996,-10.021 h 78.698164 c 2.65774,0 5.20662,1.05579 7.08592,2.93509 1.8793,1.87931 2.93507,4.42818 2.93507,7.08591 v 40.084 c 0,5.53445 -4.48654,10.021 -10.02099,10.021 H 80.892386 c -5.534447,0 -10.020996,-4.48655 -10.020996,-10.021 z" />
  <path
     style="fill:#000000;fill-rule:nonzero"
     inkscape:connector-curvature="0"
     id="path4353"
     d="m 93.00957,259.47662 h 1.765625 v 7.71875 q 0,2.01563 -0.453125,3.20313 -0.453125,1.1875 -1.640625,1.9375 -1.1875,0.73437 -3.125,0.73437 -1.875,0 -3.078125,-0.64062 -1.1875,-0.65625 -1.703125,-1.875 -0.5,-1.23438 -0.5,-3.35938 v -7.71875 h 1.765625 v 7.71875 q 0,1.73438 0.3125,2.5625 0.328125,0.8125 1.109375,1.26563 0.796875,0.45312 1.9375,0.45312 1.953125,0 2.78125,-0.89062 0.828125,-0.89063 0.828125,-3.39063 z m 3.847946,10.46875 1.625,-0.25 q 0.125,0.96875 0.75,1.5 0.625,0.51563 1.750004,0.51563 1.125,0 1.67187,-0.45313 0.54688,-0.46875 0.54688,-1.09375 0,-0.54687 -0.48438,-0.875 -0.32812,-0.21875 -1.67187,-0.54687 -1.812504,-0.46875 -2.515629,-0.79688 -0.6875,-0.32812 -1.046875,-0.90625 -0.359375,-0.59375 -0.359375,-1.3125 0,-0.64062 0.296875,-1.1875 0.296875,-0.5625 0.8125,-0.92187 0.375,-0.28125 1.03125,-0.46875 0.671875,-0.20313 1.421874,-0.20313 1.14063,0 2,0.32813 0.85938,0.32812 1.26563,0.89062 0.42187,0.5625 0.57812,1.5 l -1.60937,0.21875 q -0.10938,-0.75 -0.64063,-1.17187 -0.51562,-0.42188 -1.46875,-0.42188 -1.140624,0 -1.624999,0.375 -0.46875,0.375 -0.46875,0.875 0,0.3125 0.1875,0.57813 0.203125,0.26562 0.640625,0.4375 0.234375,0.0937 1.437504,0.42187 1.75,0.45313 2.4375,0.75 0.6875,0.29688 1.07812,0.85938 0.39063,0.5625 0.39063,1.40625 0,0.82812 -0.48438,1.54687 -0.46875,0.71875 -1.375,1.125 -0.90625,0.39063 -2.04687,0.39063 -1.875004,0 -2.875004,-0.78125 -0.984375,-0.78125 -1.25,-2.32813 z m 16.609374,-0.21875 1.6875,0.20313 q -0.40625,1.48437 -1.48437,2.3125 -1.07813,0.8125 -2.76563,0.8125 -2.125,0 -3.375,-1.29688 -1.23437,-1.3125 -1.23437,-3.67187 0,-2.45313 1.25,-3.79688 1.26562,-1.34375 3.26562,-1.34375 1.9375,0 3.15625,1.32813 1.23438,1.3125 1.23438,3.70312 0,0.15625 0,0.4375 h -7.21875 q 0.0937,1.59375 0.90625,2.45313 0.8125,0.84375 2.01562,0.84375 0.90625,0 1.54688,-0.46875 0.64062,-0.48438 1.01562,-1.51563 z m -5.39062,-2.65625 h 5.40625 q -0.10938,-1.21875 -0.625,-1.82812 -0.78125,-0.95313 -2.03125,-0.95313 -1.125,0 -1.90625,0.76563 -0.76563,0.75 -0.84375,2.01562 z m 9.12571,5.76563 v -9.67188 h 1.46875 v 1.46875 q 0.5625,-1.03125 1.03125,-1.35937 0.48438,-0.32813 1.0625,-0.32813 0.82813,0 1.6875,0.53125 l -0.5625,1.51563 q -0.60937,-0.35938 -1.20312,-0.35938 -0.54688,0 -0.96875,0.32813 -0.42188,0.32812 -0.60938,0.89062 -0.28125,0.875 -0.28125,1.92188 v 5.0625 z" />
  <flowRoot
     xml:space="preserve"
     id="flowRoot4512"
     style="font-style:normal;font-weight:normal;font-size:40px;line-height:1.25;font-family:sans-serif;letter-spacing:0px;word-spacing:0px;fill:#000000;fill-opacity:1;stroke:none"><flowRegion
       id="flowRegion4514"><rect
         id="rect4516"
         width="184.31604"
         height="64.435692"
         x="406.84396"
         y="136.15306" /></flowRegion><flowPara
       id="flowPara4518">OpenVPN t</flowPara></flowRoot>  <g
     aria-label="OpenVPN Tunnel
(per challenge)"
     transform="translate(-221.68508,-32.417917)"
     style="font-style:normal;font-weight:normal;font-size:40px;line-height:1.25;font-family:sans-serif;letter-spacing:0px;word-spacing:0px;fill:#000000;fill-opacity:1;stroke:none"
     id="flowRoot4520">
    <path
       d="m 567.04687,149.32031 q -2.0052,0 -3.1901,1.49479 -1.17578,1.49479 -1.17578,4.07422 0,2.57031 1.17578,4.06511 1.1849,1.49479 3.1901,1.49479 2.00521,0 3.17188,-1.49479 1.17578,-1.4948 1.17578,-4.06511 0,-2.57943 -1.17578,-4.07422 -1.16667,-1.49479 -3.17188,-1.49479 z m 0,-1.49479 q 2.86198,0 4.57553,1.92318 1.71354,1.91406 1.71354,5.14062 0,3.21745 -1.71354,5.14063 -1.71355,1.91406 -4.57553,1.91406 -2.87109,0 -4.59375,-1.91406 -1.71354,-1.91407 -1.71354,-5.14063 0,-3.22656 1.71354,-5.14062 1.72266,-1.92318 4.59375,-1.92318 z"
       style="font-size:18.66666603px;line-height:3.5"
       id="path4536" />
    <path
       d="m 577.76562,160.14844 v 5.41406 h -1.68619 v -14.09115 h 1.68619 v 1.54948 q 0.52865,-0.91146 1.33073,-1.34896 0.8112,-0.44661 1.9323,-0.44661 1.85937,0 3.01692,1.47656 1.16667,1.47656 1.16667,3.88281 0,2.40625 -1.16667,3.88282 -1.15755,1.47656 -3.01692,1.47656 -1.1211,0 -1.9323,-0.4375 -0.80208,-0.44662 -1.33073,-1.35807 z m 5.70573,-3.56381 q 0,-1.85026 -0.76562,-2.89843 -0.75651,-1.05729 -2.08724,-1.05729 -1.33073,0 -2.09636,1.05729 -0.75651,1.04817 -0.75651,2.89843 0,1.85026 0.75651,2.90756 0.76563,1.04817 2.09636,1.04817 1.33073,0 2.08724,-1.04817 0.76562,-1.0573 0.76562,-2.90756 z"
       style="font-size:18.66666603px;line-height:3.5"
       id="path4538" />
    <path
       d="m 596.72396,156.15625 v 0.82031 h -7.71094 q 0.10938,1.73177 1.03906,2.64323 0.9388,0.90234 2.60677,0.90234 0.96615,0 1.86849,-0.23697 0.91146,-0.23698 1.80469,-0.71094 v 1.58593 q -0.90234,0.38282 -1.85026,0.58334 -0.94792,0.20052 -1.92318,0.20052 -2.44271,0 -3.87369,-1.42188 -1.42188,-1.42187 -1.42188,-3.84635 0,-2.50651 1.34896,-3.97396 1.35807,-1.47656 3.65495,-1.47656 2.05989,0 3.2539,1.33073 1.20313,1.32161 1.20313,3.60026 z m -1.67709,-0.49219 q -0.0182,-1.3763 -0.77474,-2.19661 -0.74739,-0.82032 -1.98697,-0.82032 -1.40365,0 -2.25131,0.79297 -0.83854,0.79297 -0.96614,2.23308 z"
       style="font-size:18.66666603px;line-height:3.5"
       id="path4540" />
    <path
       d="m 607.96224,155.51823 v 6.16146 h -1.67709 v -6.10677 q 0,-1.44922 -0.5651,-2.16928 -0.5651,-0.72005 -1.69531,-0.72005 -1.35808,0 -2.14193,0.86589 -0.78385,0.86588 -0.78385,2.36068 v 5.76953 h -1.6862 v -10.20834 h 1.6862 v 1.58594 q 0.60156,-0.92057 1.41276,-1.3763 0.82031,-0.45573 1.88671,-0.45573 1.75912,0 2.66146,1.09375 0.90235,1.08463 0.90235,3.19922 z"
       style="font-size:18.66666603px;line-height:3.5"
       id="path4542" />
    <path
       d="m 614.90755,161.67969 -5.19531,-13.60808 h 1.92318 l 4.31119,11.45703 4.32032,-11.45703 h 1.91406 l -5.1862,13.60808 z"
       style="font-size:18.66666603px;line-height:3.5"
       id="path4544" />
    <path
       d="m 626,149.58463 v 5.11329 h 2.3151 q 1.28516,0 1.98698,-0.66537 0.70182,-0.66536 0.70182,-1.89583 0,-1.22136 -0.70182,-1.88672 -0.70182,-0.66537 -1.98698,-0.66537 z m -1.84115,-1.51302 h 4.15625 q 2.28776,0 3.45443,1.03907 1.17578,1.02994 1.17578,3.02604 0,2.01432 -1.17578,3.04427 -1.16667,1.02995 -3.45443,1.02995 H 626 v 5.46875 h -1.84115 z"
       style="font-size:18.66666603px;line-height:3.5"
       id="path4546" />
    <path
       d="m 635.42448,148.07161 h 2.47916 l 6.03386,11.38412 v -11.38412 h 1.78646 v 13.60808 h -2.47917 l -6.03386,-11.38412 v 11.38412 h -1.78645 z"
       style="font-size:18.66666603px;line-height:3.5"
       id="path4548" />
    <path
       d="m 653.44401,148.07161 h 11.51172 v 1.54948 H 660.125 v 12.0586 h -1.85026 v -12.0586 h -4.83073 z"
       style="font-size:18.66666603px;line-height:3.5"
       id="path4550" />
    <path
       d="m 663.65234,157.65104 v -6.17969 h 1.67709 v 6.11589 q 0,1.44922 0.5651,2.17838 0.56511,0.72006 1.69531,0.72006 1.35808,0 2.14193,-0.86589 0.79297,-0.86588 0.79297,-2.36068 v -5.78776 h 1.67708 v 10.20834 h -1.67708 v -1.56771 q -0.61068,0.92969 -1.42188,1.38541 -0.80208,0.44662 -1.86849,0.44662 -1.75911,0 -2.67057,-1.09375 -0.91146,-1.09375 -0.91146,-3.19922 z m 4.22006,-6.42578 z"
       style="font-size:18.66666603px;line-height:3.5"
       id="path4552" />
    <path
       d="m 684.16015,155.51823 v 6.16146 h -1.67708 v -6.10677 q 0,-1.44922 -0.56511,-2.16928 -0.5651,-0.72005 -1.69531,-0.72005 -1.35807,0 -2.14193,0.86589 -0.78385,0.86588 -0.78385,2.36068 v 5.76953 h -1.6862 v -10.20834 h 1.6862 v 1.58594 q 0.60156,-0.92057 1.41276,-1.3763 0.82031,-0.45573 1.88672,-0.45573 1.75911,0 2.66146,1.09375 0.90234,1.08463 0.90234,3.19922 z"
       style="font-size:18.66666603px;line-height:3.5"
       id="path4554" />
    <path
       d="m 696.00911,155.51823 v 6.16146 h -1.67708 v -6.10677 q 0,-1.44922 -0.56511,-2.16928 -0.5651,-0.72005 -1.69531,-0.72005 -1.35807,0 -2.14193,0.86589 -0.78385,0.86588 -0.78385,2.36068 v 5.76953 h -1.6862 v -10.20834 h 1.6862 v 1.58594 q 0.60156,-0.92057 1.41276,-1.3763 0.82031,-0.45573 1.88672,-0.45573 1.75911,0 2.66146,1.09375 0.90234,1.08463 0.90234,3.19922 z"
       style="font-size:18.66666603px;line-height:3.5"
       id="path4556" />
    <path
       d="m 708.10417,156.15625 v 0.82031 h -7.71094 q 0.10937,1.73177 1.03906,2.64323 0.9388,0.90234 2.60677,0.90234 0.96615,0 1.86849,-0.23697 0.91146,-0.23698 1.80469,-0.71094 v 1.58593 q -0.90234,0.38282 -1.85026,0.58334 -0.94792,0.20052 -1.92318,0.20052 -2.44271,0 -3.8737,-1.42188 -1.42187,-1.42187 -1.42187,-3.84635 0,-2.50651 1.34896,-3.97396 1.35807,-1.47656 3.65495,-1.47656 2.05989,0 3.2539,1.33073 1.20313,1.32161 1.20313,3.60026 z m -1.67709,-0.49219 q -0.0182,-1.3763 -0.77474,-2.19661 -0.74739,-0.82032 -1.98698,-0.82032 -1.40364,0 -2.2513,0.79297 -0.83854,0.79297 -0.96614,2.23308 z"
       style="font-size:18.66666603px;line-height:3.5"
       id="path4558" />
    <path
       d="m 710.85677,147.4974 h 1.67708 v 14.18229 h -1.67708 z"
       style="font-size:18.66666603px;line-height:3.5"
       id="path4560" />
    <path
       d="m 565.47917,212.84895 q -1.22136,2.09636 -1.81381,4.14714 -0.59244,2.05078 -0.59244,4.15625 0,2.10547 0.59244,4.17448 0.60157,2.05989 1.81381,4.14713 h -1.45834 q -1.36718,-2.14193 -2.05078,-4.21094 -0.67448,-2.06901 -0.67448,-4.11067 0,-2.03255 0.67448,-4.09245 0.67448,-2.0599 2.05078,-4.21094 z"
       style="font-size:18.66666603px;line-height:3.5"
       id="path4562" />
    <path
       d="m 570.36458,225.48176 v 5.41407 h -1.68619 v -14.09115 h 1.68619 v 1.54948 q 0.52865,-0.91146 1.33073,-1.34896 0.8112,-0.44661 1.93229,-0.44661 1.85938,0 3.01693,1.47656 1.16667,1.47656 1.16667,3.88281 0,2.40625 -1.16667,3.88281 -1.15755,1.47657 -3.01693,1.47657 -1.12109,0 -1.93229,-0.4375 -0.80208,-0.44662 -1.33073,-1.35808 z m 5.70573,-3.5638 q 0,-1.85026 -0.76562,-2.89843 -0.75651,-1.0573 -2.08724,-1.0573 -1.33073,0 -2.09636,1.0573 -0.75651,1.04817 -0.75651,2.89843 0,1.85026 0.75651,2.90755 0.76563,1.04818 2.09636,1.04818 1.33073,0 2.08724,-1.04818 0.76562,-1.05729 0.76562,-2.90755 z"
       style="font-size:18.66666603px;line-height:3.5"
       id="path4564" />
    <path
       d="m 589.32292,221.48958 v 0.82031 h -7.71094 q 0.10937,1.73177 1.03906,2.64323 0.9388,0.90234 2.60677,0.90234 0.96615,0 1.86849,-0.23698 0.91146,-0.23698 1.80469,-0.71093 v 1.58593 q -0.90234,0.38282 -1.85026,0.58334 -0.94792,0.20052 -1.92318,0.20052 -2.44271,0 -3.8737,-1.42188 -1.42187,-1.42187 -1.42187,-3.84635 0,-2.50651 1.34896,-3.97396 1.35807,-1.47656 3.65495,-1.47656 2.05989,0 3.2539,1.33073 1.20313,1.32161 1.20313,3.60026 z m -1.67709,-0.49219 q -0.0182,-1.3763 -0.77474,-2.19661 -0.74739,-0.82032 -1.98698,-0.82032 -1.40364,0 -2.2513,0.79297 -0.83854,0.79297 -0.96614,2.23307 z"
       style="font-size:18.66666603px;line-height:3.5"
       id="path4566" />
    <path
       d="m 597.99089,218.37239 q -0.28256,-0.16406 -0.6198,-0.23698 -0.32812,-0.082 -0.72916,-0.082 -1.42188,0 -2.1875,0.92969 -0.75651,0.92057 -0.75651,2.65234 v 5.3776 h -1.6862 v -10.20833 h 1.6862 v 1.58594 q 0.52864,-0.92969 1.3763,-1.3763 0.84765,-0.45573 2.05989,-0.45573 0.17318,0 0.38282,0.0273 0.20963,0.0182 0.46484,0.0638 z"
       style="font-size:18.66666603px;line-height:3.5"
       id="path4568" />
    <path
       d="m 613.05729,217.19661 v 1.56771 q -0.71094,-0.39193 -1.43099,-0.58334 -0.71094,-0.20052 -1.4401,-0.20052 -1.63152,0 -2.53386,1.03907 -0.90234,1.02994 -0.90234,2.89843 0,1.86849 0.90234,2.90755 0.90234,1.02995 2.53386,1.02995 0.72916,0 1.4401,-0.1914 0.72005,-0.20052 1.43099,-0.59245 v 1.54948 q -0.70182,0.32812 -1.45833,0.49218 -0.7474,0.16407 -1.59506,0.16407 -2.30599,0 -3.66406,-1.44922 -1.35807,-1.44922 -1.35807,-3.91016 0,-2.49739 1.36719,-3.92838 1.3763,-1.43099 3.76432,-1.43099 0.77474,0 1.51302,0.16406 0.73828,0.15495 1.43099,0.47396 z"
       style="font-size:18.66666603px;line-height:3.5"
       id="path4570" />
    <path
       d="m 624.47786,220.85156 v 6.16145 h -1.67708 v -6.10677 q 0,-1.44921 -0.56511,-2.16927 -0.5651,-0.72005 -1.69531,-0.72005 -1.35807,0 -2.14193,0.86589 -0.78385,0.86588 -0.78385,2.36067 v 5.76953 h -1.6862 v -14.18229 h 1.6862 v 5.5599 q 0.60156,-0.92057 1.41276,-1.3763 0.82031,-0.45573 1.88672,-0.45573 1.75911,0 2.66146,1.09375 0.90234,1.08463 0.90234,3.19922 z"
       style="font-size:18.66666603px;line-height:3.5"
       id="path4572" />
    <path
       d="m 632.48047,221.8815 q -2.03255,0 -2.81641,0.46485 -0.78385,0.46484 -0.78385,1.58594 0,0.89322 0.58333,1.42187 0.59245,0.51953 1.60417,0.51953 1.39453,0 2.23307,-0.98437 0.84766,-0.99349 0.84766,-2.63412 v -0.3737 z m 3.34505,-0.6927 v 5.82421 h -1.67708 v -1.54947 q -0.57422,0.92968 -1.43099,1.3763 -0.85677,0.4375 -2.09636,0.4375 -1.5677,0 -2.49739,-0.875 -0.92058,-0.88412 -0.92058,-2.36068 0,-1.72266 1.14844,-2.59766 1.15755,-0.875 3.44531,-0.875 h 2.35157 v -0.16406 q 0,-1.15755 -0.76563,-1.78646 -0.75651,-0.63802 -2.13281,-0.63802 -0.875,0 -1.70443,0.20964 -0.82942,0.20963 -1.59505,0.6289 v -1.54947 q 0.92057,-0.35547 1.78646,-0.52865 0.86588,-0.18229 1.6862,-0.18229 2.21484,0 3.30859,1.14844 1.09375,1.14843 1.09375,3.48177 z"
       style="font-size:18.66666603px;line-height:3.5"
       id="path4574" />
    <path
       d="m 639.28906,212.83072 h 1.67708 v 14.18229 h -1.67708 z"
       style="font-size:18.66666603px;line-height:3.5"
       id="path4576" />
    <path
       d="m 644.46615,212.83072 h 1.67708 v 14.18229 h -1.67708 z"
       style="font-size:18.66666603px;line-height:3.5"
       id="path4578" />
    <path
       d="m 658.37499,221.48958 v 0.82031 h -7.71093 q 0.10937,1.73177 1.03906,2.64323 0.9388,0.90234 2.60677,0.90234 0.96615,0 1.86849,-0.23698 0.91146,-0.23698 1.80469,-0.71093 v 1.58593 q -0.90235,0.38282 -1.85026,0.58334 -0.94792,0.20052 -1.92318,0.20052 -2.44271,0 -3.8737,-1.42188 -1.42187,-1.42187 -1.42187,-3.84635 0,-2.50651 1.34896,-3.97396 1.35807,-1.47656 3.65494,-1.47656 2.0599,0 3.25391,1.33073 1.20312,1.32161 1.20312,3.60026 z m -1.67708,-0.49219 q -0.0182,-1.3763 -0.77474,-2.19661 -0.74739,-0.82032 -1.98698,-0.82032 -1.40364,0 -2.2513,0.79297 -0.83854,0.79297 -0.96615,2.23307 z"
       style="font-size:18.66666603px;line-height:3.5"
       id="path4580" />
    <path
       d="m 669.61328,220.85156 v 6.16145 h -1.67709 v -6.10677 q 0,-1.44921 -0.5651,-2.16927 -0.56511,-0.72005 -1.69531,-0.72005 -1.35808,0 -2.14193,0.86589 -0.78386,0.86588 -0.78386,2.36067 v 5.76953 h -1.68619 v -10.20833 h 1.68619 v 1.58594 q 0.60157,-0.92057 1.41277,-1.3763 0.82031,-0.45573 1.88671,-0.45573 1.75912,0 2.66146,1.09375 0.90235,1.08463 0.90235,3.19922 z"
       style="font-size:18.66666603px;line-height:3.5"
       id="path4582" />
    <path
       d="m 679.69401,221.79036 q 0,-1.82292 -0.75651,-2.82552 -0.7474,-1.00261 -2.10547,-1.00261 -1.34896,0 -2.10547,1.00261 -0.7474,1.0026 -0.7474,2.82552 0,1.8138 0.7474,2.8164 0.75651,1.00261 2.10547,1.00261 1.35807,0 2.10547,-1.00261 0.75651,-1.0026 0.75651,-2.8164 z m 1.67708,3.95573 q 0,2.60677 -1.15755,3.8737 -1.15755,1.27604 -3.54557,1.27604 -0.88412,0 -1.66797,-0.13672 -0.78386,-0.12761 -1.52214,-0.40104 v -1.63151 q 0.73828,0.40104 1.45834,0.59244 0.72005,0.19141 1.46744,0.19141 1.64974,0 2.47006,-0.86589 0.82031,-0.85677 0.82031,-2.59765 v -0.82943 q -0.51953,0.90235 -1.33073,1.34896 -0.8112,0.44661 -1.94141,0.44661 -1.8776,0 -3.02604,-1.43099 -1.14844,-1.43098 -1.14844,-3.79166 0,-2.36979 1.14844,-3.80078 1.14844,-1.43099 3.02604,-1.43099 1.13021,0 1.94141,0.44661 0.8112,0.44662 1.33073,1.34896 v -1.54948 h 1.67708 z"
       style="font-size:18.66666603px;line-height:3.5"
       id="path4584" />
    <path
       d="m 693.55729,221.48958 v 0.82031 h -7.71094 q 0.10938,1.73177 1.03907,2.64323 0.9388,0.90234 2.60677,0.90234 0.96614,0 1.86849,-0.23698 0.91146,-0.23698 1.80468,-0.71093 v 1.58593 q -0.90234,0.38282 -1.85026,0.58334 -0.94791,0.20052 -1.92317,0.20052 -2.44271,0 -3.8737,-1.42188 -1.42188,-1.42187 -1.42188,-3.84635 0,-2.50651 1.34896,-3.97396 1.35808,-1.47656 3.65495,-1.47656 2.0599,0 3.25391,1.33073 1.20312,1.32161 1.20312,3.60026 z m -1.67708,-0.49219 q -0.0182,-1.3763 -0.77474,-2.19661 -0.7474,-0.82032 -1.98698,-0.82032 -1.40365,0 -2.2513,0.79297 -0.83854,0.79297 -0.96615,2.23307 z"
       style="font-size:18.66666603px;line-height:3.5"
       id="path4586" />
    <path
       d="m 696.04557,212.84895 h 1.45834 q 1.36718,2.15104 2.04166,4.21094 0.6836,2.0599 0.6836,4.09245 0,2.04166 -0.6836,4.11067 -0.67448,2.06901 -2.04166,4.21094 h -1.45834 q 1.21224,-2.08724 1.80469,-4.14713 0.60156,-2.06901 0.60156,-4.17448 0,-2.10547 -0.60156,-4.15625 -0.59245,-2.05078 -1.80469,-4.14714 z"
       style="font-size:18.66666603px;line-height:3.5"
       id="path4588" />
  </g>
</svg>
